<?xml version="1.0" encoding="UTF-8" standalone="no"?>
<!-- Created with Inkscape (http://www.inkscape.org/) -->

<svg
   width="13.229167mm"
   height="13.241405mm"
   viewBox="0 0 13.229167 13.241404"
   version="1.1"
   id="svg1"
   inkscape:version="1.3.2 (091e20e, 2023-11-25, custom)"
   sodipodi:docname="dents.svg"
   xmlns:inkscape="http://www.inkscape.org/namespaces/inkscape"
   xmlns:sodipodi="http://sodipodi.sourceforge.net/DTD/sodipodi-0.dtd"
   xmlns="http://www.w3.org/2000/svg"
   xmlns:svg="http://www.w3.org/2000/svg">
  <sodipodi:namedview
     id="namedview1"
     pagecolor="#ffffff"
     bordercolor="#666666"
     borderopacity="1.0"
     inkscape:showpageshadow="2"
     inkscape:pageopacity="0.0"
     inkscape:pagecheckerboard="0"
     inkscape:deskcolor="#d1d1d1"
     inkscape:document-units="mm"
     inkscape:zoom="11.702245"
     inkscape:cx="21.619784"
     inkscape:cy="31.404232"
     inkscape:window-width="1920"
     inkscape:window-height="1017"
     inkscape:window-x="1912"
     inkscape:window-y="-8"
     inkscape:window-maximized="1"
     inkscape:current-layer="layer1" />
  <defs
     id="defs1" />
  <g
     inkscape:label="Calque 1"
     inkscape:groupmode="layer"
     id="layer1"
     transform="translate(-56.119452,-73.473243)">
    <path
       id="path2"
       style="fill:#ebf21b;fill-opacity:1;stroke-width:0.549533;stroke-miterlimit:2;paint-order:stroke markers fill"
       d="m 62.735986,74.129576 a 5.9644876,5.9644876 0 0 0 -0.956376,0.08406 l -0.147749,1.478019 -0.820156,-1.229525 a 5.9644876,5.9644876 0 0 0 -0.992204,0.445907 l 0.363784,1.428534 -1.188907,-0.87319 a 5.9644876,5.9644876 0 0 0 -0.785924,0.751336 l 0.83399,1.22314 -1.409554,-0.412029 a 5.9644876,5.9644876 0 0 0 -0.469852,0.98582 l 1.184296,0.851374 -1.452478,0.09401 a 5.9644876,5.9644876 0 0 0 -0.119725,1.087453 l 1.406185,0.395534 -1.331335,0.584432 a 5.9644876,5.9644876 0 0 0 0.279357,1.061733 l 1.435451,-0.107663 -1.03708,0.99114 a 5.9644876,5.9644876 0 0 0 0.614054,0.914519 l 1.309696,-0.590996 -0.638175,1.291606 a 5.9644876,5.9644876 0 0 0 0.899617,0.636755 l 1.021293,-0.996287 -0.156084,1.41346 a 5.9644876,5.9644876 0 0 0 1.062974,0.30543 l 0.617247,-1.281672 0.337888,1.385963 a 5.9644876,5.9644876 0 0 0 0.139767,0.01 5.9644876,5.9644876 0 0 0 0.962052,-0.08532 l 0.142074,-1.420906 0.790357,1.184829 a 5.9644876,5.9644876 0 0 0 1.009587,-0.450343 l -0.351368,-1.379401 1.151127,0.845519 a 5.9644876,5.9644876 0 0 0 0.803839,-0.752932 l -0.814126,-1.193874 1.383127,0.404402 a 5.9644876,5.9644876 0 0 0 0.479784,-0.990073 l -1.167801,-0.83949 1.440064,-0.09312 a 5.9644876,5.9644876 0 0 0 0.128238,-1.089403 l -1.402283,-0.394469 1.34446,-0.590286 a 5.9644876,5.9644876 0 0 0 -0.260024,-1.058363 l -1.467909,0.110145 1.067764,-1.020406 a 5.9644876,5.9644876 0 0 0 -0.60412,-0.903728 l -1.350314,0.60944 0.657686,-1.330626 a 5.9644876,5.9644876 0 0 0 -0.874787,-0.64119 l -1.065635,1.039562 0.163357,-1.480148 A 5.9644876,5.9644876 0 0 0 63.860686,74.237416 L 63.213642,75.581166 62.8605,74.13259 a 5.9644876,5.9644876 0 0 0 -0.124514,-0.0031 z" />
  </g>
</svg>
