<?xml version="1.0" encoding="UTF-8" standalone="no"?>
<!-- Created with Inkscape (http://www.inkscape.org/) -->

<svg
   width="33.428886mm"
   height="50.106228mm"
   viewBox="0 0 33.428886 50.106228"
   version="1.1"
   id="svg5"
   inkscape:version="1.1.2 (b8e25be833, 2022-02-05)"
   sodipodi:docname="pip-boy.svg"
   xmlns:inkscape="http://www.inkscape.org/namespaces/inkscape"
   xmlns:sodipodi="http://sodipodi.sourceforge.net/DTD/sodipodi-0.dtd"
   xmlns="http://www.w3.org/2000/svg"
   xmlns:svg="http://www.w3.org/2000/svg">
  <sodipodi:namedview
     id="namedview7"
     pagecolor="#ffffff"
     bordercolor="#666666"
     borderopacity="1.0"
     inkscape:pageshadow="2"
     inkscape:pageopacity="0.0"
     inkscape:pagecheckerboard="0"
     inkscape:document-units="mm"
     showgrid="false"
     inkscape:zoom="4.1877624"
     inkscape:cx="54.802536"
     inkscape:cy="79.517405"
     inkscape:window-width="1920"
     inkscape:window-height="1017"
     inkscape:window-x="-1928"
     inkscape:window-y="-8"
     inkscape:window-maximized="1"
     inkscape:current-layer="layer1" />
  <defs
     id="defs2" />
  <g
     inkscape:label="Calque 1"
     inkscape:groupmode="layer"
     id="layer1"
     transform="translate(-101.78916,-62.869519)">
    <path
       style="fill:#ffffff;stroke:none;stroke-width:0.264583px;stroke-linecap:butt;stroke-linejoin:miter;stroke-opacity:1"
       d="m 116.93402,73.077777 c 0,0 1.84546,0.75585 2.30076,0.446751 0.45531,-0.309098 2.2561,-0.893502 2.65817,-0.915839 0.40208,-0.02234 1.56363,0.402076 1.63064,0.491426 0.067,0.08935 0.7148,1.139215 0.51377,1.54129 -0.20104,0.402076 -0.91584,0.82649 -1.13922,1.250903 -0.22337,0.424413 -1.67532,0.804152 -2.07739,0.826489 -0.40208,0.02234 -1.94337,-0.06701 -2.50181,-0.424413 -0.55843,-0.357401 -0.57759,-1.515316 -1.02593,-1.539472 -0.44834,-0.02416 -0.69406,-1.386747 -0.35899,-1.677135 z"
       id="path861" />
    <path
       style="fill:#e3ddbb;stroke-width:0.0846667"
       d="m 128.97168,112.0294 -0.24867,-0.27516 0.27516,0.24867 c 0.2565,0.2318 0.31409,0.30166 0.24868,0.30166 -0.0146,0 -0.1384,-0.12382 -0.27517,-0.27517 z m -1.10338,-2.032 -0.16129,-0.1905 0.1905,0.16129 c 0.17902,0.15157 0.22904,0.21971 0.16129,0.21971 -0.0161,0 -0.1018,-0.0857 -0.1905,-0.1905 z m -12.64294,-1.55222 c 0.004,-0.0986 0.0241,-0.11869 0.0512,-0.0512 0.0245,0.0611 0.0215,0.13414 -0.007,0.16228 -0.0281,0.0281 -0.0481,-0.0219 -0.0445,-0.11113 z m 0.67733,-11.514661 c 0.004,-0.09863 0.0241,-0.118694 0.0511,-0.05115 0.0245,0.06112 0.0215,0.134144 -0.007,0.162278 -0.0281,0.02813 -0.0482,-0.02187 -0.0445,-0.111125 z m 12.27667,-7.366 c 0.004,-0.09863 0.0241,-0.118694 0.0512,-0.05115 0.0245,0.06112 0.0214,0.134144 -0.007,0.162278 -0.0281,0.02813 -0.0481,-0.02187 -0.0445,-0.111125 z m -13.03867,-2.54 c 0.004,-0.09863 0.0241,-0.118694 0.0511,-0.05115 0.0245,0.06112 0.0215,0.134144 -0.007,0.162278 -0.0281,0.02813 -0.0482,-0.02187 -0.0445,-0.111125 z m -6.50324,-3.649951 c 0.0824,-0.02147 0.19668,-0.02005 0.254,0.0031 0.0573,0.02319 -0.0101,0.04076 -0.14978,0.03903 -0.1397,-0.0017 -0.1866,-0.0207 -0.10422,-0.04217 z m 6.50992,-0.36466 c 0,-0.116417 0.0192,-0.164042 0.0427,-0.105833 0.0235,0.05821 0.0235,0.153458 0,0.211666 -0.0235,0.05821 -0.0427,0.01058 -0.0427,-0.105833 z m -11.1047,-1.568138 c -0.66683,-0.149726 -1.38055,-0.414528 -1.41771,-0.52599 -0.0544,-0.163203 0.28289,-0.456123 0.61338,-0.532698 0.48766,-0.11299 1.44926,-0.09479 1.98967,0.03765 0.60943,0.149361 1.25021,0.408215 1.27446,0.514841 0.0106,0.04657 -0.18611,0.188311 -0.43711,0.314988 -0.57554,0.290471 -1.28282,0.357332 -2.02269,0.191207 z m -1.94065,-0.513251 c 0.004,-0.09863 0.0241,-0.118694 0.0512,-0.05115 0.0245,0.06112 0.0215,0.134144 -0.007,0.162278 -0.0281,0.02813 -0.0481,-0.02187 -0.0445,-0.111125 z m 0.11228,-0.987778 -0.16129,-0.1905 0.1905,0.161289 c 0.17902,0.151572 0.22904,0.219711 0.16129,0.219711 -0.0161,0 -0.10179,-0.08572 -0.1905,-0.1905 z m 3.90271,-0.210208 c -0.86866,-0.304196 -1.65069,-0.341944 -2.286,-0.110343 -0.82582,0.301048 -0.90732,0.302299 -1.21104,0.01858 -0.3195,-0.298456 -0.37126,-0.744883 -0.11343,-0.978221 0.25014,-0.226375 1.06873,-0.476735 1.55518,-0.47564 1.19605,0.0027 2.85962,0.894418 2.85962,1.532847 0,0.287236 -0.0197,0.287548 -0.80433,0.01277 z m 13.75833,-1.43868 c -0.96255,-0.273666 -2.26644,-1.507724 -2.8744,-2.720459 -0.76047,-1.516925 -0.7926,-3.368625 -0.0946,-5.451512 0.14443,-0.431002 0.36736,-0.991743 0.4954,-1.246091 0.23148,-0.459834 0.33203,-0.553432 1.45867,-1.357883 0.29348,-0.20955 0.70523,-0.547513 0.91501,-0.751029 l 0.3814,-0.370029 0.37506,0.182218 c 0.516,0.250692 1.0043,0.303042 1.43437,0.153776 l 0.35523,-0.123295 0.14293,0.348346 c 0.31262,0.761965 0.37247,1.048768 0.24153,1.157441 -0.18171,0.150805 -0.15286,0.418572 0.0451,0.418572 0.21543,0 0.29923,0.172069 0.41573,0.853602 0.13388,0.783289 0.1352,0.777295 -0.15734,0.713041 -0.32007,-0.0703 -1.18674,0.172362 -1.18674,0.332278 0,0.06939 0.1699,0.156948 0.42176,0.217371 0.23198,0.05565 0.57488,0.212088 0.76201,0.347642 0.33256,0.240912 0.34023,0.257999 0.34023,0.758879 0,0.586452 -0.15171,1.6689 -0.26029,1.857187 -0.0403,0.06985 -0.0744,0.08297 -0.0758,0.02915 -0.003,-0.114941 -0.74188,-0.621813 -0.90641,-0.621813 -0.0752,0 -0.10565,0.09165 -0.0913,0.275167 0.0202,0.258125 -0.009,0.289939 -0.47079,0.513691 -1.01924,0.493848 -2.12726,0.579633 -3.29655,0.255228 -0.4176,-0.115858 -0.48684,-0.163581 -0.48684,-0.335576 0,-0.281095 -0.19585,-0.25172 -0.46654,0.06997 -0.18442,0.219169 -0.21846,0.326793 -0.17943,0.567303 0.0574,0.353931 0.52694,0.876322 0.63371,0.705094 0.052,-0.08342 0.15361,-0.05995 0.44476,0.102782 1.11308,0.622111 2.59558,0.572229 3.99548,-0.134437 0.2749,-0.138771 0.51724,-0.234896 0.53853,-0.213611 0.11457,0.114576 -0.81466,1.957109 -1.51257,2.99922 -0.46205,0.689922 -0.50415,0.704646 -1.33727,0.467778 z m 0.46567,-2.097612 c 0,-0.151474 -0.0647,-0.171957 -0.61384,-0.194209 -0.47972,-0.01944 -0.61383,8.55e-4 -0.61383,0.0929 0,0.184697 0.34187,0.307147 0.80433,0.288091 0.36108,-0.01488 0.42334,-0.04235 0.42334,-0.186778 z m -0.31302,-3.184343 c 0.0164,-0.141295 -0.0523,-0.313662 -0.1905,-0.477889 -0.11888,-0.141283 -0.21615,-0.274486 -0.21615,-0.296007 0,-0.02152 0.19529,-0.377971 0.43398,-0.792111 0.39416,-0.683916 0.66669,-1.29024 0.66669,-1.483294 0,-0.04071 -0.0535,-0.07402 -0.11892,-0.07402 -0.0654,0 -0.24216,0.218371 -0.39279,0.48527 -0.15063,0.266899 -0.49961,0.720353 -0.77551,1.007675 -0.65907,0.68636 -0.67542,1.026527 -0.08,1.664637 0.28749,0.308095 0.63553,0.290384 0.67321,-0.03426 z m -1.57439,-1.832157 c 0.4439,-0.51184 0.0858,-1.78284 -0.40184,-1.426263 -0.22128,0.161809 -0.28103,1.070008 -0.0896,1.362161 0.16346,0.249473 0.31368,0.269067 0.49144,0.0641 z m -0.23424,-2.436859 c 0.0904,-0.06837 0.29041,-0.124307 0.4445,-0.124307 0.15408,0 0.28015,-0.0406 0.28015,-0.09023 0,-0.193481 -0.18329,-0.417767 -0.3414,-0.417767 -0.19546,0 -0.86387,0.576578 -0.79591,0.686552 0.0674,0.108994 0.22407,0.08839 0.41266,-0.05424 z m -15.68712,9.035674 c -0.088,-0.125206 -0.20968,-0.367305 -0.2705,-0.537997 -0.0963,-0.27024 -0.0922,-0.338489 0.0321,-0.528078 0.24852,-0.379282 1.18764,-0.727906 1.96084,-0.727906 0.3475,0 1.39322,0.366562 1.49253,0.523186 0.1287,0.202982 0.0809,0.803589 -0.0798,1.001996 l -0.15327,0.189274 -0.5695,-0.192368 c -0.4989,-0.168521 -0.61165,-0.179738 -0.90954,-0.09049 -0.18703,0.05603 -0.36116,0.156896 -0.38696,0.224139 -0.0258,0.06724 -0.12027,0.122261 -0.20991,0.122261 -0.0897,0 -0.29419,0.05482 -0.45454,0.121814 -0.2819,0.117784 -0.29683,0.114283 -0.45145,-0.105833 z m 13.09389,0.01085 c 0.0611,-0.02446 0.13415,-0.02145 0.16228,0.0067 0.0281,0.02813 -0.0219,0.04815 -0.11113,0.04447 -0.0986,-0.0041 -0.11869,-0.02412 -0.0511,-0.05115 z m 1.97049,-0.482488 -0.20438,-0.264009 0.24222,0.230268 c 0.13323,0.126647 0.2252,0.245451 0.20439,0.264008 -0.0208,0.01856 -0.12982,-0.08506 -0.24223,-0.230267 z m -9.49635,-1.047176 -0.20526,-0.232833 0.23283,0.205258 c 0.21762,0.191846 0.27166,0.260409 0.20526,0.260409 -0.0152,0 -0.11994,-0.104775 -0.23283,-0.232834 z m -0.63664,-0.635 -0.16129,-0.1905 0.1905,0.16129 c 0.17902,0.151572 0.22904,0.21971 0.16129,0.21971 -0.0161,0 -0.10179,-0.08572 -0.1905,-0.1905 z m -3.13354,-1.100666 c -0.12155,-0.369556 -0.0526,-1.280027 0.13478,-1.778699 0.43527,-1.158621 1.42105,-1.529671 1.82156,-0.685645 0.13119,0.27645 0.12876,0.336525 -0.0433,1.071689 -0.19946,0.852067 -0.28192,0.98363 -0.84116,1.341967 -0.48282,0.309372 -0.97903,0.332839 -1.07184,0.05069 z m 14.97375,0.129857 c 0.12806,-0.0194 0.33761,-0.0194 0.46567,0 0.12806,0.0194 0.0233,0.03527 -0.23284,0.03527 -0.25611,0 -0.36089,-0.01587 -0.23283,-0.03527 z m -13.75833,-3.55143 c 0.0582,-0.02349 0.15346,-0.02349 0.21166,0 0.0582,0.02349 0.0106,0.0427 -0.10583,0.0427 -0.11642,0 -0.16404,-0.01922 -0.10583,-0.0427 z m 23.41051,-2.102927 c 9.4e-4,-0.186267 0.0183,-0.252498 0.0385,-0.14718 0.0203,0.105318 0.0195,0.257718 -0.002,0.338667 -0.0212,0.08095 -0.0378,-0.0052 -0.0368,-0.191487 z m -8.24989,-5.095504 c 0.0611,-0.02446 0.13415,-0.02145 0.16228,0.0067 0.0281,0.02813 -0.0219,0.04814 -0.11113,0.04447 -0.0986,-0.0041 -0.11869,-0.02412 -0.0511,-0.05115 z m 1.11654,-0.312796 c 0,-0.01758 0.0667,-0.08426 0.14817,-0.148166 0.13429,-0.105315 0.13728,-0.10232 0.032,0.03197 -0.11061,0.141033 -0.18013,0.185884 -0.18013,0.1162 z"
       id="path1052" />
    <path
       style="fill:#d8d2a0;stroke-width:0.0846667"
       d="m 128.54087,94.553434 c -0.64438,-0.136013 -0.86176,-3.084594 -0.27814,-3.772715 l 0.16381,-0.193145 0.17762,0.23442 c 0.36643,0.483615 1.51291,1.077914 2.07943,1.077914 0.25494,0 0.24992,0.03874 -0.046,0.355426 -0.48626,0.52029 -0.54182,1.151989 -0.13695,1.556865 0.23745,0.237447 0.40098,0.25737 0.58686,0.07149 0.18193,-0.181926 0.0304,-0.459786 -0.25076,-0.459786 -0.30168,0 -0.27882,-0.38578 0.0497,-0.839322 0.30255,-0.417667 0.45968,-0.421633 0.73138,-0.01846 0.37422,0.55531 0.33558,1.264166 -0.0963,1.766769 l -0.20109,0.234016 -1.2987,0.01248 c -0.71428,0.0069 -1.38066,-0.0048 -1.48083,-0.02596 z M 106.97558,82.780428 c -0.13462,-0.03464 -0.12012,-0.06319 0.10015,-0.197143 0.37363,-0.227217 0.90681,-0.939739 1.11041,-1.483905 0.097,-0.259352 0.23087,-0.783306 0.29741,-1.164344 0.0665,-0.381037 0.19526,-0.897698 0.28604,-1.148135 l 0.16507,-0.45534 0.094,0.438341 c 0.25082,1.169541 -0.0768,2.269438 -1.04899,3.521564 -0.42928,0.552886 -0.5421,0.607827 -1.0041,0.488962 z m -1.83224,-0.245585 c -0.69662,-0.151132 -0.8296,-0.210859 -0.33527,-0.150579 0.47367,0.05776 1.36401,-0.09622 1.77823,-0.307541 0.55259,-0.28191 0.72515,-0.759347 0.45987,-1.272353 -0.071,-0.137388 -0.0996,-0.250055 -0.0635,-0.250374 0.12899,-0.0011 0.44667,-0.564441 0.44667,-0.792032 0,-0.288292 -0.17241,-0.627874 -0.4508,-0.887906 l -0.21289,-0.19885 0.20485,-0.38526 c 0.23586,-0.443598 0.26887,-1.006627 0.0804,-1.371112 -0.1896,-0.366658 -0.75675,-0.769945 -1.50976,-1.073564 -0.57034,-0.229963 -0.71837,-0.33159 -0.91976,-0.631459 -0.13201,-0.196563 -0.24002,-0.389753 -0.24002,-0.429312 0,-0.03956 0.14287,-0.07207 0.3175,-0.07224 0.33378,-3.39e-4 0.75738,-0.212071 1.13613,-0.567908 l 0.22596,-0.212294 -0.004,0.482448 -0.004,0.482448 1.10086,1.071978 c 1.02477,0.99789 1.10815,1.10311 1.20641,1.522422 0.17216,0.734705 -0.004,1.383723 -0.52427,1.932438 -0.28361,0.299064 -0.29036,0.583559 -0.0137,0.575077 0.16148,-0.005 0.16927,0.02176 0.0988,0.338666 -0.21112,0.949334 -0.72069,1.653746 -1.49476,2.066322 -0.56091,0.298958 -0.52499,0.295289 -1.2823,0.130988 z m -0.84667,-0.687398 c -0.45412,-0.08311 -1.52918,-0.551687 -1.60933,-0.701448 -0.0782,-0.146185 -0.0416,-0.142968 0.49109,0.04315 1.29757,0.453345 2.25754,0.453638 3.03004,9.22e-4 0.43732,-0.256283 0.42775,-0.255621 0.4858,-0.03366 0.0638,0.243945 -0.26972,0.539255 -0.74384,0.65864 -0.36635,0.09225 -1.23384,0.109243 -1.65376,0.0324 z m 1.76451,-1.675942 c -0.35462,-0.192608 -1.7425,-0.401593 -2.31484,-0.348565 l -0.508,0.04707 0.381,-0.185633 c 0.5344,-0.260372 1.59375,-0.259506 2.413,0.002 0.7958,0.253998 0.89602,0.325795 0.68232,0.488838 -0.20313,0.154975 -0.36303,0.154074 -0.65348,-0.0037 z m 14.89038,-1.114115 c -0.31614,-0.119789 -0.56379,-0.225849 -0.55034,-0.235689 0.0135,-0.0098 0.39855,0.01908 0.85577,0.06427 0.86568,0.08556 1.06369,0.038 0.96058,-0.230705 -0.0404,-0.105236 -0.19161,-0.132691 -0.73091,-0.132691 -0.37399,0 -0.67999,-0.01798 -0.67999,-0.03996 0,-0.02198 0.22513,-0.38281 0.50029,-0.801852 0.57855,-0.881082 1.37556,-2.461639 1.39286,-2.762206 0.0161,-0.279107 0.10376,-0.259135 0.21083,0.04802 0.11922,0.341999 0.24046,0.319808 0.34691,-0.0635 0.11696,-0.421181 0.11197,-0.564569 -0.0316,-0.908259 -0.10395,-0.248787 -0.10437,-0.380903 -0.003,-0.94978 0.0648,-0.363437 0.11912,-0.90059 0.12074,-1.193673 0.002,-0.459644 0.0233,-0.529459 0.15112,-0.508 0.21559,0.0362 0.19038,-0.622981 -0.0356,-0.930722 -0.0984,-0.133952 -0.21357,-0.509857 -0.27632,-0.90162 -0.0592,-0.369537 -0.12829,-0.731487 -0.15356,-0.804333 -0.0253,-0.07285 0.13025,0.03663 0.34558,0.243273 0.21534,0.206646 0.41595,0.351295 0.4458,0.321443 0.17395,-0.173954 -0.52844,-1.247496 -0.81621,-1.247496 -0.0941,0 -0.19176,-0.06668 -0.21693,-0.148166 -0.0252,-0.08149 -0.14313,-0.409143 -0.26214,-0.728114 l -0.21637,-0.579946 0.20921,-0.209216 0.20922,-0.209217 0.68642,0.733661 0.68642,0.733661 0.66033,-0.140973 c 0.37838,-0.08078 0.91337,-0.129384 1.25299,-0.113831 0.58966,0.027 0.59279,0.02843 0.61738,0.281141 0.0172,0.176968 -0.0791,0.425917 -0.3175,0.820863 -0.18822,0.311774 -0.34221,0.610322 -0.34221,0.66344 0,0.05312 0.21927,0.31247 0.48726,0.576337 0.268,0.263868 0.5734,0.63207 0.67867,0.818227 l 0.19139,0.338467 -0.31883,-0.342457 c -0.41138,-0.441871 -0.88973,-0.800543 -1.06765,-0.800543 -0.26482,0 -0.13968,0.254639 0.26966,0.548718 0.57274,0.411472 1.4319,1.701768 1.25256,1.881107 -0.0296,0.02955 -0.0537,-0.0039 -0.0537,-0.07425 0,-0.23383 -0.65879,-1.15153 -0.98651,-1.374224 -0.66597,-0.452539 -0.86976,-0.159113 -0.21579,0.310714 0.29729,0.213582 0.49046,0.451981 0.71967,0.888157 0.17231,0.327916 0.3133,0.643992 0.3133,0.702391 0,0.0584 0.0996,0.309662 0.22123,0.558362 0.41884,0.856074 0.0607,1.376176 -1.23723,1.796818 -0.20513,0.06648 -0.34845,0.19314 -0.46567,0.41153 -0.1468,0.273517 -0.77906,0.849966 -2.0368,1.857005 -0.30753,0.246232 -0.32319,0.278381 -0.19852,0.407488 0.12571,0.130186 0.15283,0.126082 0.381,-0.05766 0.57739,-0.464986 0.5573,-0.456789 0.45409,-0.185253 -0.31018,0.816073 -0.91656,1.540128 -1.49073,1.78003 -0.44358,0.18534 -1.26021,0.138154 -1.91716,-0.110778 z m 5.4517,-6.572434 c -0.15156,-0.283195 -0.58767,-0.529161 -0.71409,-0.402746 -0.0736,0.07364 -0.007,0.181287 0.27221,0.438995 0.25935,0.239477 0.39644,0.31476 0.45909,0.252112 0.0627,-0.06265 0.0575,-0.148755 -0.0172,-0.288361 z m 0.62488,-0.05589 c 0.13885,-0.224668 -0.71826,-1.18782 -1.05704,-1.18782 -0.26979,0 -0.19937,0.158581 0.24974,0.562367 0.23036,0.207113 0.44248,0.451058 0.47137,0.542101 0.0553,0.174348 0.24986,0.222614 0.33593,0.08335 z m -21.2498,5.669257 c -0.56809,-0.268825 -1.48731,-0.465653 -1.89514,-0.405797 -0.37712,0.05535 -0.29083,-0.114869 0.13404,-0.264402 0.31657,-0.111417 0.38796,-0.105671 0.92005,0.07406 l 0.57685,0.194851 0.16023,-0.197869 c 0.11933,-0.147363 0.15304,-0.30135 0.1321,-0.60328 -0.0155,-0.222977 -0.002,-0.405389 0.0288,-0.40536 0.0313,2.9e-5 0.22069,0.124967 0.42086,0.277639 0.49249,0.375637 0.58603,0.706983 0.34162,1.210064 -0.10021,0.206259 -0.21127,0.371747 -0.2468,0.36775 -0.0355,-0.004 -0.2932,-0.115442 -0.5726,-0.247657 z m 13.589,-6.635043 c 0,-0.01758 0.0667,-0.08426 0.14817,-0.148167 0.13428,-0.105314 0.13728,-0.10232 0.032,0.03197 -0.11061,0.141033 -0.18014,0.185884 -0.18014,0.1162 z m -2.0916,-3.869576 c -0.19044,-0.122258 -0.32515,-0.317481 -0.45207,-0.655139 -0.20159,-0.536321 -0.18809,-0.907038 0.0514,-1.411749 0.14759,-0.311032 0.15376,-0.314296 0.22579,-0.119572 0.2839,0.767445 0.82328,0.689358 2.34068,-0.338863 0.62483,-0.423396 1.14666,-0.685134 1.36596,-0.685134 0.0973,0 0.29669,0.06194 0.44309,0.137646 l 0.26618,0.137647 0.53954,-0.572321 c 0.37499,-0.397772 0.56651,-0.545351 0.62797,-0.483893 0.14787,0.147871 0.321,1.042338 0.3224,1.665687 10e-4,0.457671 -0.0213,0.565856 -0.10028,0.486834 -0.16307,-0.163067 -0.29979,-0.120983 -0.65782,0.202476 -0.4628,0.418115 -0.85003,0.462833 -1.48613,0.171619 -0.26633,-0.121933 -0.56681,-0.221695 -0.66772,-0.221695 -0.11085,0 -0.40003,0.211064 -0.7306,0.533247 -0.49157,0.479101 -1.42933,1.185632 -1.70961,1.288069 -0.0591,0.02161 -0.22959,-0.03907 -0.37879,-0.134859 z m 2.4726,-0.839791 c 0.0843,-0.09313 0.1723,-0.169333 0.19558,-0.169333 0.0233,0 -0.0266,0.0762 -0.11091,0.169333 -0.0843,0.09313 -0.1723,0.169334 -0.19558,0.169334 -0.0233,0 0.0266,-0.0762 0.11091,-0.169334 z"
       id="path1050" />
    <path
       style="fill:#cac873;stroke-width:0.0846667"
       d="m 121.27234,94.429401 c -1.02934,-0.06801 -1.77626,-0.190688 -2.83633,-0.465846 -0.91283,-0.236939 -2.03079,-0.621135 -2.03445,-0.699155 -0.001,-0.02869 -0.11032,-0.909409 -0.24217,-1.957159 -0.13185,-1.04775 -0.23246,-1.914416 -0.22358,-1.925926 0.009,-0.01151 0.31839,0.110048 0.68779,0.270127 1.21705,0.527414 1.78186,0.589943 1.98026,0.219227 0.0484,-0.09052 0.14358,-1.337841 0.21142,-2.771834 0.16189,-3.422434 0.27132,-4.760241 0.48445,-5.9227 l 0.0956,-0.52144 -0.344,-0.390811 c -0.50213,-0.570446 -0.65701,-0.934168 -0.65736,-1.543754 -1.7e-4,-0.287161 0.0236,-0.546021 0.0528,-0.575246 0.0292,-0.02922 0.35307,0.163683 0.71967,0.428682 2.60797,1.885224 4.50092,1.540917 5.61833,-1.021911 0.1543,-0.353877 0.30611,-0.632613 0.33738,-0.619413 0.0313,0.0132 0.35016,0.157349 0.70866,0.320333 0.63597,0.289123 0.65054,0.302514 0.59865,0.550333 -0.1186,0.566435 -0.6459,1.392958 -1.26207,1.978259 -0.65099,0.618376 -1.74136,1.239811 -2.62725,1.497347 -0.24713,0.07184 -0.48619,0.176469 -0.53126,0.232507 -0.38009,0.472613 -0.82352,7.964039 -0.51189,8.647987 0.054,0.118451 0.26642,0.296083 0.47472,0.396921 0.32748,0.158526 0.46984,0.17597 1.083,0.132698 0.38829,-0.0274 1.38434,-0.191097 2.21345,-0.363768 0.82911,-0.172671 1.60273,-0.317548 1.71914,-0.321949 l 0.21167,-0.008 0.0502,1.481666 c 0.0276,0.814917 0.0781,1.617633 0.11238,1.783814 l 0.0622,0.302149 -0.74738,0.224176 c -1.95411,0.586138 -3.49195,0.769029 -5.40404,0.642688 z m 1.69393,-19.292523 c -0.0297,-0.048 0.004,-0.06219 0.0797,-0.03328 0.14668,0.05629 0.17352,0.116972 0.0517,0.116972 -0.0438,0 -0.10294,-0.03766 -0.1314,-0.0837 z m 4.72448,-4.577748 c -0.19037,-0.346861 -0.53812,-0.825703 -0.77278,-1.064095 l -0.42666,-0.433438 0.19505,-0.287033 c 0.10727,-0.157867 0.26393,-0.480982 0.34812,-0.718032 0.19533,-0.549966 0.0841,-0.882383 -0.36683,-1.096367 -0.33621,-0.15954 -1.25246,-0.133834 -2.00766,0.05633 l -0.39639,0.09981 -0.6169,-0.668032 -0.6169,-0.668032 -0.0442,-0.762 c -0.0474,-0.816731 -0.21969,-1.452573 -0.38431,-1.418167 -0.18377,0.03841 -0.10555,-0.05695 0.15889,-0.193696 0.36536,-0.18893 0.6478,-0.100879 1.21513,0.378813 0.48301,0.4084 0.74563,0.513383 1.28427,0.513383 0.24527,0 0.32942,0.06272 0.62991,0.469476 0.19075,0.258212 0.5573,0.667787 0.81455,0.910167 1.34552,1.26774 1.35831,1.282544 1.55082,1.795357 0.35643,0.949458 0.30694,2.478069 -0.11223,3.466772 l -0.10576,0.249439 z m -11.05966,-1.671523 c -0.25196,-0.278413 -0.33879,-0.657223 -0.21152,-0.922775 0.13996,-0.292016 0.21118,-0.294788 0.56,-0.0218 l 0.27531,0.215461 -0.24175,0.442068 c -0.23057,0.421632 -0.24823,0.434902 -0.38204,0.287042 z m 2.73625,-2.430032 c 0.10937,-0.116417 0.2179,-0.211667 0.24119,-0.211667 0.0233,0 -0.0472,0.09525 -0.15652,0.211667 -0.10937,0.116417 -0.2179,0.211667 -0.24119,0.211667 -0.0233,0 0.0472,-0.09525 0.15652,-0.211667 z m 2.87867,-0.508 c 0.10937,-0.116417 0.2179,-0.211667 0.24118,-0.211667 0.0233,0 -0.0472,0.09525 -0.15652,0.211667 -0.10936,0.116417 -0.2179,0.211667 -0.24118,0.211667 -0.0233,0 0.0472,-0.09525 0.15652,-0.211667 z m 0.40746,-0.269504 c 0.0611,-0.02446 0.13414,-0.02145 0.16227,0.0067 0.0281,0.02813 -0.0219,0.04814 -0.11112,0.04447 -0.0986,-0.0041 -0.1187,-0.02413 -0.0512,-0.05115 z m -0.61913,-1.635496 c 0.0843,-0.09313 0.1723,-0.169333 0.19558,-0.169333 0.0233,0 -0.0266,0.0762 -0.11091,0.169333 -0.0843,0.09313 -0.1723,0.169333 -0.19558,0.169333 -0.0233,0 0.0266,-0.0762 0.11091,-0.169333 z"
       id="path1048" />
    <path
       style="fill:#a4a5a4;stroke-width:0.0846667"
       d="m 130.56756,112.4405 c -0.80526,-0.26241 -1.37135,-0.72731 -1.7216,-1.41386 -0.27602,-0.54106 -0.2747,-0.54193 0.82955,-0.5467 0.87827,-0.004 1.06839,-0.0321 1.62268,-0.24183 l 0.62785,-0.23753 0.1501,0.19899 c 0.33586,0.44527 0.46558,1.39688 0.24627,1.80667 -0.24027,0.44896 -1.0755,0.65565 -1.75485,0.43426 z m -15.53409,-0.70177 c 0.0611,-0.0245 0.13414,-0.0215 0.16227,0.007 0.0281,0.0281 -0.0219,0.0481 -0.11112,0.0445 -0.0986,-0.004 -0.1187,-0.0241 -0.0512,-0.0512 z m -1.44969,-0.45839 c -0.42128,-0.0991 -0.65111,-0.22589 -0.65111,-0.35914 0,-0.31411 1.17538,-1.03317 2.17078,-1.32801 0.32322,-0.0957 0.38901,-0.0854 0.84667,0.13317 0.42602,0.20345 0.62797,0.24222 1.42755,0.27406 0.84804,0.0338 1.74511,-0.0673 2.56117,-0.28861 0.15283,-0.0414 0.1905,-0.017 0.1905,0.12357 0,0.71268 -0.86095,1.12187 -1.35816,0.64551 l -0.22442,-0.21501 -0.73161,0.29495 c -1.64209,0.662 -3.28698,0.9417 -4.23137,0.71951 z m 5.29673,-0.1348 c 0.0815,-0.0213 0.21484,-0.0213 0.29633,0 0.0815,0.0213 0.0148,0.0387 -0.14817,0.0387 -0.16298,0 -0.22965,-0.0174 -0.14816,-0.0387 z m 13.95551,-0.0757 c 0.004,-0.0986 0.0241,-0.1187 0.0512,-0.0511 0.0245,0.0611 0.0214,0.13414 -0.007,0.16227 -0.0281,0.0281 -0.0481,-0.0219 -0.0445,-0.11112 z m -12.26684,-1.43228 c 0.002,-0.1397 0.0207,-0.1866 0.0422,-0.10422 0.0215,0.0824 0.02,0.19668 -0.003,0.254 -0.0232,0.0573 -0.0408,-0.0101 -0.039,-0.14978 z m -5.334,-0.762 c 0.002,-0.1397 0.0207,-0.1866 0.0422,-0.10422 0.0215,0.0824 0.02,0.19668 -0.003,0.254 -0.0232,0.0573 -0.0408,-0.0101 -0.039,-0.14978 z m 17.26218,-0.007 c 0.004,-0.0986 0.0241,-0.1187 0.0512,-0.0512 0.0245,0.0611 0.0215,0.13415 -0.007,0.16228 -0.0281,0.0281 -0.0481,-0.0219 -0.0445,-0.11112 z m -11.50799,-0.54328 c 0,-0.11642 0.0192,-0.16404 0.0427,-0.10584 0.0235,0.0582 0.0235,0.15346 0,0.21167 -0.0235,0.0582 -0.0427,0.0106 -0.0427,-0.10583 z m 0.0847,-1.18534 c 0,-0.11641 0.0192,-0.16404 0.0427,-0.10583 0.0235,0.0582 0.0235,0.15346 0,0.21167 -0.0235,0.0582 -0.0427,0.0106 -0.0427,-0.10584 z m 11.42332,0.0353 c 0.004,-0.0986 0.0241,-0.11869 0.0512,-0.0511 0.0245,0.0611 0.0215,0.13414 -0.007,0.16228 -0.0281,0.0281 -0.0481,-0.0219 -0.0445,-0.11113 z m -17.18065,-0.11994 c 0,-0.11642 0.0192,-0.16404 0.0427,-0.10584 0.0235,0.0582 0.0235,0.15346 0,0.21167 -0.0235,0.0582 -0.0427,0.0106 -0.0427,-0.10583 z m 0.0847,-1.35467 c 0,-0.11642 0.0192,-0.16404 0.0427,-0.10583 0.0235,0.0582 0.0235,0.15346 0,0.21166 -0.0235,0.0582 -0.0427,0.0106 -0.0427,-0.10583 z m 0.078,-1.31939 c 0.004,-0.0986 0.0241,-0.11869 0.0512,-0.0511 0.0245,0.0611 0.0214,0.13414 -0.007,0.16228 -0.0281,0.0281 -0.0481,-0.0219 -0.0445,-0.11113 z m 0.0847,-1.35467 c 0.004,-0.0986 0.0241,-0.11869 0.0511,-0.0511 0.0245,0.0611 0.0215,0.13415 -0.007,0.16228 -0.0281,0.0281 -0.0482,-0.0219 -0.0445,-0.11113 z m 0.0847,-1.35466 c 0.004,-0.0986 0.0241,-0.11869 0.0511,-0.0511 0.0245,0.0611 0.0215,0.13415 -0.007,0.16228 -0.0281,0.0281 -0.0481,-0.0219 -0.0445,-0.11112 z m 0.0847,-1.35466 c 0.004,-0.0986 0.0241,-0.1187 0.0512,-0.0512 0.0245,0.0611 0.0215,0.13414 -0.007,0.16227 -0.0281,0.0281 -0.0481,-0.0219 -0.0445,-0.11112 z m 0.0847,-1.354671 c 0.004,-0.09863 0.0241,-0.118694 0.0512,-0.05115 0.0245,0.06112 0.0215,0.134144 -0.007,0.162278 -0.0281,0.02813 -0.0481,-0.02187 -0.0445,-0.111125 z m 0.0945,-1.686278 c 0.002,-0.1397 0.0207,-0.1866 0.0422,-0.104222 0.0215,0.08238 0.02,0.196678 -0.003,0.254 -0.0232,0.05732 -0.0408,-0.01008 -0.039,-0.149778 z m 13.42532,-2.218881 c 0.10531,-0.02025 0.25771,-0.01948 0.33866,0.0017 0.081,0.02119 -0.005,0.03776 -0.19149,0.03682 -0.18626,-9.39e-4 -0.25249,-0.01828 -0.14717,-0.03853 z m 0.84666,0 c 0.10532,-0.02025 0.25772,-0.01948 0.33867,0.0017 0.081,0.02119 -0.005,0.03776 -0.19149,0.03682 -0.18626,-9.39e-4 -0.2525,-0.01828 -0.14718,-0.03853 z m -14.18419,-0.278846 c 0,-0.162983 0.0174,-0.229658 0.0387,-0.148166 0.0213,0.08149 0.0213,0.214841 0,0.296333 -0.0213,0.08149 -0.0387,0.01482 -0.0387,-0.148167 z m 15.37381,0.196164 c 0.0611,-0.02446 0.13415,-0.02145 0.16228,0.0067 0.0281,0.02813 -0.0219,0.04815 -0.11112,0.04447 -0.0986,-0.0041 -0.1187,-0.02412 -0.0511,-0.05115 z m -1.524,-0.338667 c 0.0611,-0.02446 0.13415,-0.02145 0.16228,0.0067 0.0281,0.02813 -0.0219,0.04815 -0.11112,0.04447 -0.0986,-0.0041 -0.1187,-0.02412 -0.0511,-0.05115 z m 0.37105,-1.508497 c 0.002,-0.1397 0.0207,-0.1866 0.0422,-0.104222 0.0215,0.08238 0.02,0.196678 -0.003,0.254 -0.0232,0.05732 -0.0408,-0.01008 -0.039,-0.149778 z m -2.37067,-0.677333 c 0.002,-0.1397 0.0207,-0.1866 0.0422,-0.104222 0.0215,0.08238 0.02,0.196678 -0.003,0.254 -0.0232,0.05732 -0.0408,-0.01008 -0.039,-0.149778 z m 0.33553,-2.582333 c 0,-0.116417 0.0192,-0.164042 0.0427,-0.105834 0.0235,0.05821 0.0235,0.153459 0,0.211667 -0.0235,0.05821 -0.0427,0.01058 -0.0427,-0.105833 z m -0.508,-0.169334 c 0,-0.116416 0.0192,-0.164041 0.0427,-0.105833 0.0235,0.05821 0.0235,0.153458 0,0.211667 -0.0235,0.05821 -0.0427,0.01058 -0.0427,-0.105834 z m -12.52753,-3.090333 c 0.002,-0.1397 0.0207,-0.1866 0.0422,-0.104222 0.0215,0.08238 0.02,0.196678 -0.003,0.254 -0.0232,0.05732 -0.0408,-0.01008 -0.039,-0.149778 z m 14.29216,-0.243633 c 0,-0.01758 0.0667,-0.08426 0.14817,-0.148167 0.13429,-0.105314 0.13728,-0.10232 0.032,0.03197 -0.11061,0.141033 -0.18013,0.185884 -0.18013,0.1162 z m -14.28902,-2.8467 c 0,-0.162983 0.0174,-0.229658 0.0387,-0.148167 0.0213,0.08149 0.0213,0.214842 0,0.296334 -0.0213,0.08149 -0.0387,0.01482 -0.0387,-0.148167 z m -6.00981,-0.14303 c 0.0815,-0.02129 0.21484,-0.02129 0.29633,0 0.0815,0.0213 0.0148,0.03872 -0.14816,0.03872 -0.16299,0 -0.22966,-0.01743 -0.14817,-0.03872 z m 1.57162,-0.08414 c 0.0611,-0.02446 0.13415,-0.02145 0.16228,0.0067 0.0281,0.02813 -0.0219,0.04815 -0.11112,0.04447 -0.0986,-0.0041 -0.1187,-0.02413 -0.0512,-0.05115 z m -4.74662,-0.16757 c 0.0582,-0.02349 0.15346,-0.02349 0.21167,0 0.0582,0.02349 0.0106,0.0427 -0.10584,0.0427 -0.11641,0 -0.16404,-0.01922 -0.10583,-0.0427 z m -1.17139,-0.732572 c 0.0383,-0.03826 0.21747,-0.05664 0.39823,-0.04084 l 0.32866,0.02873 -0.39823,0.04084 c -0.21903,0.02246 -0.36692,0.0095 -0.32866,-0.02873 z m -0.69128,-2.569428 c 0.0582,-0.02349 0.15346,-0.02349 0.21167,0 0.0582,0.02349 0.0106,0.0427 -0.10583,0.0427 -0.11642,0 -0.16404,-0.01922 -0.10584,-0.0427 z m 2.82185,-0.07798 c 0.004,-0.09863 0.0241,-0.118694 0.0511,-0.05115 0.0245,0.06112 0.0215,0.134143 -0.007,0.162278 -0.0281,0.02813 -0.0482,-0.02187 -0.0445,-0.111125 z m 0.79765,-0.204611 c 0.0843,-0.09313 0.1723,-0.169334 0.19558,-0.169334 0.0233,0 -0.0266,0.0762 -0.11091,0.169334 -0.0843,0.09313 -0.17229,0.169333 -0.19558,0.169333 -0.0233,0 0.0266,-0.0762 0.11091,-0.169333 z m -1.10871,-0.359834 -0.16129,-0.1905 0.1905,0.161289 c 0.17903,0.151572 0.22905,0.219711 0.16129,0.219711 -0.0161,0 -0.10179,-0.08572 -0.1905,-0.1905 z m 15.39782,0.131827 c 0.0824,-0.02147 0.19668,-0.02005 0.25401,0.0031 0.0573,0.02319 -0.0101,0.04076 -0.14978,0.03903 -0.1397,-0.0017 -0.1866,-0.0207 -0.10422,-0.04217 z m -0.33866,-0.423333 c 0.0824,-0.02147 0.19668,-0.02005 0.254,0.0031 0.0573,0.02319 -0.0101,0.04076 -0.14978,0.03903 -0.1397,-0.0017 -0.1866,-0.0207 -0.10422,-0.04217 z m -9.27261,-1.098067 c 0.0582,-0.02349 0.15345,-0.02349 0.21166,0 0.0582,0.02349 0.0106,0.0427 -0.10583,0.0427 -0.11642,0 -0.16404,-0.01922 -0.10583,-0.0427 z m 3.47662,-0.0018 c 0.0611,-0.02446 0.13414,-0.02145 0.16228,0.0067 0.0281,0.02813 -0.0219,0.04815 -0.11112,0.04447 -0.0986,-0.0041 -0.1187,-0.02412 -0.0512,-0.05115 z m -13.61546,-1.159429 c 0,-0.01758 0.0667,-0.08426 0.14817,-0.148166 0.13429,-0.105315 0.13728,-0.10232 0.032,0.03197 -0.11061,0.141034 -0.18013,0.185884 -0.18013,0.1162 z m 5.49254,-0.708866 c -0.10532,-0.134287 -0.10232,-0.137281 0.032,-0.03197 0.0815,0.06391 0.14816,0.130586 0.14816,0.148167 0,0.06968 -0.0695,0.02483 -0.18013,-0.1162 z m 17.5368,0.03153 c 0,-0.01758 0.0667,-0.08426 0.14816,-0.148167 0.13429,-0.105314 0.13728,-0.102319 0.032,0.03197 -0.1106,0.141034 -0.18013,0.185884 -0.18013,0.1162 z m -18.67705,-0.4972 -0.16129,-0.1905 0.1905,0.161289 c 0.17903,0.151572 0.22905,0.219711 0.16129,0.219711 -0.0161,0 -0.10179,-0.08572 -0.1905,-0.1905 z m 13.19488,0.132137 c 0.0815,-0.0213 0.21484,-0.0213 0.29633,0 0.0815,0.0213 0.0148,0.03872 -0.14816,0.03872 -0.16299,0 -0.22966,-0.01742 -0.14817,-0.03872 z m -0.20637,-0.33814 c 0.0611,-0.02446 0.13414,-0.02145 0.16227,0.0067 0.0281,0.02813 -0.0219,0.04815 -0.11112,0.04447 -0.0986,-0.0041 -0.1187,-0.02412 -0.0512,-0.05115 z m 0.508,0 c 0.0611,-0.02446 0.13414,-0.02145 0.16227,0.0067 0.0281,0.02813 -0.0219,0.04815 -0.11112,0.04447 -0.0986,-0.0041 -0.1187,-0.02412 -0.0511,-0.05115 z m -13.5416,-0.428994 c -0.10531,-0.134286 -0.10232,-0.137281 0.032,-0.03197 0.0815,0.06391 0.14817,0.130586 0.14817,0.148167 0,0.06968 -0.0695,0.02483 -0.18013,-0.1162 z m 21.00814,-0.05313 c 0,-0.01758 0.0667,-0.08426 0.14816,-0.148167 0.13429,-0.105314 0.13728,-0.10232 0.032,0.03197 -0.1106,0.141033 -0.18013,0.185884 -0.18013,0.1162 z m -11.66094,-1.5767 c 0,-0.20955 0.0165,-0.295275 0.0367,-0.1905 0.0202,0.104775 0.0202,0.276225 0,0.381 -0.0202,0.104775 -0.0367,0.01905 -0.0367,-0.1905 z m 0.41678,-0.296334 c 0.002,-0.1397 0.0207,-0.1866 0.0422,-0.104222 0.0215,0.08238 0.02,0.196678 -0.003,0.254 -0.0232,0.05732 -0.0408,-0.01008 -0.039,-0.149778 z m -0.42647,-0.296333 c 0,-0.116417 0.0192,-0.164042 0.0427,-0.105833 0.0235,0.05821 0.0235,0.153458 0,0.211666 -0.0235,0.05821 -0.0427,0.01058 -0.0427,-0.105833 z m 9.72329,-0.418336 c 0,-0.04382 0.0377,-0.102948 0.0837,-0.131398 0.048,-0.02966 0.0622,0.0043 0.0333,0.07967 -0.0563,0.146678 -0.11697,0.173515 -0.11697,0.05173 z m -6.477,-0.512997 c 0.0843,-0.09313 0.1723,-0.169334 0.19558,-0.169334 0.0233,0 -0.0266,0.0762 -0.11091,0.169334 -0.0843,0.09313 -0.17229,0.169333 -0.19558,0.169333 -0.0233,0 0.0266,-0.0762 0.11091,-0.169333 z m 3.53645,-1.582673 c 0.0824,-0.02147 0.19668,-0.02005 0.254,0.0031 0.0573,0.02319 -0.0101,0.04076 -0.14978,0.03903 -0.1397,-0.0017 -0.1866,-0.0207 -0.10422,-0.04217 z m -6.25382,-0.724494 -0.16129,-0.1905 0.1905,0.161289 c 0.10477,0.08871 0.1905,0.174434 0.1905,0.1905 0,0.06776 -0.0681,0.01773 -0.21971,-0.161289 z m 6.72824,-1.227666 c -0.10531,-0.134287 -0.10232,-0.137281 0.032,-0.03197 0.14104,0.110606 0.18589,0.180133 0.1162,0.180133 -0.0176,0 -0.0843,-0.06668 -0.14816,-0.148166 z m 2.87359,-0.841004 c 0.0611,-0.02446 0.13415,-0.02145 0.16228,0.0067 0.0281,0.02813 -0.0219,0.04815 -0.11112,0.04447 -0.0986,-0.0041 -0.1187,-0.02412 -0.0512,-0.05115 z m -4.70268,-0.508836 c 0.0824,-0.02147 0.19668,-0.02005 0.254,0.0031 0.0573,0.02319 -0.0101,0.04076 -0.14978,0.03903 -0.1397,-0.0017 -0.1866,-0.0207 -0.10422,-0.04217 z m 6.40109,-0.766827 c -0.10531,-0.134286 -0.10232,-0.137281 0.032,-0.03197 0.14104,0.110606 0.18589,0.180133 0.1162,0.180133 -0.0176,0 -0.0843,-0.06668 -0.14816,-0.148167 z m -3.47133,-2.54 c -0.10532,-0.134286 -0.10232,-0.137281 0.032,-0.03197 0.14103,0.110606 0.18588,0.180133 0.1162,0.180133 -0.0176,0 -0.0843,-0.06668 -0.14817,-0.148167 z"
       id="path1046" />
    <path
       style="fill:#45738b;stroke-width:0.0846667"
       d="m 129.18867,110.0083 c -0.65947,-0.0773 -0.86943,-0.18132 -1.20561,-0.59739 -0.56013,-0.69321 -0.89807,-1.29916 -1.11651,-2.00199 -0.5577,-1.79442 -1.63817,-3.92861 -3.47957,-6.87301 -0.3349,-0.53552 -0.78898,-1.326094 -1.00906,-1.756836 -0.23296,-0.455966 -0.45261,-0.783166 -0.52573,-0.783166 -0.13981,0 -0.10251,0.195597 0.12098,0.634325 0.071,0.139328 0.14552,0.501278 0.16567,0.804333 0.0313,0.470655 -0.0138,0.711144 -0.30903,1.649084 -0.64306,2.04295 -1.01975,4.09776 -1.20229,6.55836 -0.0572,0.7704 -0.137,1.34356 -0.19215,1.37918 -0.0519,0.0335 -0.45631,0.14711 -0.8987,0.25239 -1.14712,0.27302 -2.82647,0.27742 -3.40783,0.009 l -0.40217,-0.18574 8e-5,-0.57626 c 4e-5,-0.31695 0.13224,-2.65271 0.29378,-5.1906 0.33256,-5.224695 0.48903,-8.697514 0.41297,-9.165159 -0.0604,-0.371183 -0.0496,-0.373738 0.61342,-0.144846 0.68695,0.237167 1.94924,0.550563 2.91309,0.723246 0.98726,0.176878 3.4582,0.202092 4.445,0.04536 0.85666,-0.136066 2.20785,-0.472905 2.74274,-0.683741 l 0.411,-0.161997 0.28875,0.566074 c 0.15882,0.311341 0.48924,0.934541 0.73427,1.384889 0.63019,1.158212 1.56486,3.85623 2.63479,7.605514 0.74444,2.60871 0.88755,3.33779 0.88915,4.52966 9e-4,0.66746 -0.0355,1.08139 -0.10621,1.20662 -0.28289,0.50126 -1.73083,0.89935 -2.81083,0.77278 z m 0.99288,-18.612388 c -0.51009,-0.163031 -0.98845,-0.47174 -1.30733,-0.843689 -0.14754,-0.172092 -0.18797,-0.326817 -0.18986,-0.726649 -0.008,-1.674899 0.79519,-3.215798 1.97793,-3.79493 0.5638,-0.276066 0.64903,-0.532486 0.19855,-0.597351 -1.87681,-0.27024 -2.69418,-0.564938 -3.77454,-1.360895 -0.54054,-0.39824 -0.79403,-0.458488 -0.84371,-0.200526 -0.0184,0.09527 0.27459,0.36303 0.91202,0.833615 0.66756,0.492836 0.92796,0.733472 0.90073,0.832342 -0.1661,0.603003 -0.50032,2.169578 -0.62554,2.932032 l -0.15219,0.926689 -0.37797,0.111994 c -0.57647,0.170813 -3.18721,0.681865 -3.80854,0.745522 -0.40677,0.04167 -0.63122,0.02268 -0.8596,-0.07274 -0.30177,-0.12609 -0.31054,-0.142773 -0.37082,-0.705599 -0.13023,-1.216088 0.11797,-5.517315 0.41047,-7.113386 l 0.10186,-0.555774 0.635,-0.231849 c 1.95152,-0.712531 3.18673,-1.811652 3.73993,-3.32787 l 0.17783,-0.487395 0.71178,0.387989 c 3.24842,1.770718 5.474,3.82298 6.75286,6.227002 l 0.38438,0.722555 -0.26054,0.840288 c -0.48572,1.566513 -1.24772,3.150037 -2.21739,4.607955 -0.64837,0.97483 -0.69795,1.016732 -1.19678,1.011447 -0.23636,-0.0025 -0.6497,-0.07485 -0.91853,-0.160777 z M 116.7905,89.233757 c -0.46264,-0.208631 -0.87029,-0.408472 -0.90589,-0.444089 -0.29358,-0.2938 -0.39411,-5.913842 -0.12449,-6.959764 0.12049,-0.46737 0.1236,-0.561903 0.0219,-0.66364 -0.10173,-0.101735 -0.16583,-0.07097 -0.44995,0.216014 -0.18223,0.184057 -0.45271,0.397421 -0.60107,0.474143 -0.40699,0.210462 -1.34496,0.526131 -2.00995,0.676439 -1.20602,0.272597 -1.64217,0.324298 -3.11573,0.369343 l -1.50707,0.04607 0.53785,-0.794681 c 0.90584,-1.338383 1.15578,-2.604098 0.74823,-3.789064 -0.10198,-0.296478 -0.17013,-0.554323 -0.15146,-0.57299 0.0187,-0.01867 0.3067,0.02344 0.64008,0.09356 1.84708,0.388547 5.11193,0.507781 6.99677,0.255526 0.51223,-0.06855 0.96943,-0.125046 1.016,-0.125538 0.0511,-5.08e-4 0.0735,0.233589 0.0566,0.590473 -0.0235,0.496205 0.008,0.669946 0.19492,1.07969 0.12264,0.268579 0.35871,0.62776 0.52461,0.798182 0.1659,0.170422 0.27997,0.344895 0.25351,0.387718 -0.18831,0.304687 -0.64865,6.325225 -0.64865,8.483267 0,0.243485 -0.0196,0.259465 -0.3175,0.259081 -0.19376,-2.54e-4 -0.64534,-0.148248 -1.15868,-0.379741 z"
       id="path1044" />
    <path
       style="fill:#636258;stroke-width:0.0846667"
       d="m 130.77617,112.92583 c 0.0582,-0.0235 0.15346,-0.0235 0.21167,0 0.0582,0.0235 0.0106,0.0427 -0.10583,0.0427 -0.11642,0 -0.16404,-0.0192 -0.10584,-0.0427 z m 0.68263,-0.002 c 0.0611,-0.0245 0.13414,-0.0215 0.16228,0.007 0.0281,0.0281 -0.0219,0.0481 -0.11113,0.0445 -0.0986,-0.004 -0.11869,-0.0241 -0.0512,-0.0512 z m 0.0847,-0.42333 c 0.0611,-0.0245 0.13414,-0.0215 0.16228,0.007 0.0281,0.0281 -0.0219,0.0481 -0.11113,0.0445 -0.0986,-0.004 -0.11869,-0.0241 -0.0511,-0.0512 z m -17.69533,-0.762 c 0.0611,-0.0245 0.13414,-0.0215 0.16227,0.007 0.0281,0.0281 -0.0219,0.0481 -0.11112,0.0445 -0.0986,-0.004 -0.1187,-0.0241 -0.0511,-0.0512 z m 0.84137,0.002 c 0.0582,-0.0235 0.15346,-0.0235 0.21167,0 0.0582,0.0235 0.0106,0.0427 -0.10584,0.0427 -0.11641,0 -0.16404,-0.0192 -0.10583,-0.0427 z m 18.15948,-0.2826 c 0,-0.16298 0.0174,-0.22965 0.0387,-0.14816 0.0213,0.0815 0.0213,0.21484 0,0.29633 -0.0213,0.0815 -0.0387,0.0148 -0.0387,-0.14817 z m -19.17019,-0.1425 c 0.0611,-0.0245 0.13414,-0.0215 0.16228,0.007 0.0281,0.0281 -0.0219,0.0482 -0.11113,0.0445 -0.0986,-0.004 -0.11869,-0.0241 -0.0512,-0.0511 z m 1.22398,-8.5e-4 c 0.0824,-0.0215 0.19668,-0.0201 0.25401,0.003 0.0573,0.0232 -0.0101,0.0408 -0.14978,0.039 -0.1397,-0.002 -0.1866,-0.0207 -0.10423,-0.0422 z m 0.63869,-0.0838 c 0.0611,-0.0245 0.13414,-0.0215 0.16227,0.007 0.0281,0.0281 -0.0219,0.0481 -0.11112,0.0445 -0.0986,-0.004 -0.1187,-0.0241 -0.0511,-0.0511 z m 16.87122,-0.0762 c 0.004,-0.0986 0.0241,-0.11869 0.0512,-0.0511 0.0245,0.0611 0.0214,0.13415 -0.007,0.16228 -0.0281,0.0281 -0.0482,-0.0219 -0.0445,-0.11113 z m -12.36802,-0.32128 c 0,-0.0176 0.0667,-0.0843 0.14817,-0.14817 0.13429,-0.10531 0.13728,-0.10232 0.032,0.032 -0.11061,0.14103 -0.18013,0.18588 -0.18013,0.1162 z m -1.13353,-0.12205 c -0.0236,-0.0381 0.0694,-0.0529 0.20667,-0.0327 0.13724,0.0201 0.24953,0.0513 0.24953,0.0694 0,0.0645 -0.41424,0.0313 -0.4562,-0.0366 z m -5.7668,-0.18465 c 0.0843,-0.0931 0.17229,-0.16933 0.19558,-0.16933 0.0233,0 -0.0266,0.0762 -0.11091,0.16933 -0.0843,0.0931 -0.1723,0.16933 -0.19558,0.16933 -0.0233,0 0.0266,-0.0762 0.11091,-0.16933 z m 15.45167,0 c 0,-0.0931 0.0345,-0.16933 0.0767,-0.16933 0.0422,0 0.0568,0.0762 0.0325,0.16933 -0.0243,0.0931 -0.0589,0.16933 -0.0767,0.16933 -0.0178,0 -0.0325,-0.0762 -0.0325,-0.16933 z m 0.49212,-0.0578 c 0.0611,-0.0245 0.13415,-0.0215 0.16228,0.007 0.0281,0.0281 -0.0219,0.0481 -0.11112,0.0445 -0.0986,-0.004 -0.1187,-0.0241 -0.0511,-0.0511 z m 1.10067,0 c 0.0611,-0.0245 0.13414,-0.0215 0.16228,0.007 0.0281,0.0281 -0.0219,0.0481 -0.11113,0.0445 -0.0986,-0.004 -0.11869,-0.0241 -0.0512,-0.0511 z m -0.762,-0.42333 c 0.0611,-0.0245 0.13414,-0.0215 0.16228,0.007 0.0281,0.0281 -0.0219,0.0482 -0.11113,0.0445 -0.0986,-0.004 -0.11869,-0.0241 -0.0512,-0.0512 z m 0.33337,0.002 c 0.0582,-0.0235 0.15346,-0.0235 0.21167,0 0.0582,0.0235 0.0106,0.0427 -0.10583,0.0427 -0.11642,0 -0.16404,-0.0192 -0.10584,-0.0427 z m -11.43,-0.0847 c 0.0582,-0.0235 0.15346,-0.0235 0.21167,0 0.0582,0.0235 0.0106,0.0427 -0.10583,0.0427 -0.11642,0 -0.16404,-0.0192 -0.10584,-0.0427 z m 1.0213,-0.17109 c 0.0611,-0.0245 0.13414,-0.0215 0.16227,0.007 0.0281,0.0281 -0.0219,0.0481 -0.11112,0.0445 -0.0986,-0.004 -0.1187,-0.0241 -0.0511,-0.0512 z m 0.74725,-0.0692 c -0.0268,-0.0698 -0.0118,-0.127 0.0333,-0.127 0.0451,0 0.082,0.0572 0.082,0.127 0,0.0699 -0.015,0.127 -0.0333,0.127 -0.0183,0 -0.0552,-0.0572 -0.082,-0.127 z m -2.65593,-0.18568 c 0.0824,-0.0215 0.19667,-0.02 0.254,0.003 0.0573,0.0232 -0.0101,0.0408 -0.14978,0.039 -0.1397,-0.002 -0.1866,-0.0207 -0.10422,-0.0422 z m -2.07066,-0.0838 c 0.0611,-0.0245 0.13415,-0.0215 0.16228,0.007 0.0281,0.0281 -0.0219,0.0481 -0.11112,0.0445 -0.0986,-0.004 -0.1187,-0.0241 -0.0511,-0.0512 z m 5.5259,-0.33022 c 0.004,-0.0986 0.0241,-0.11869 0.0511,-0.0512 0.0245,0.0611 0.0215,0.13415 -0.007,0.16228 -0.0281,0.0281 -0.0481,-0.0219 -0.0445,-0.11113 z m 11.17599,-0.33866 c 0.004,-0.0986 0.0241,-0.1187 0.0512,-0.0511 0.0245,0.0611 0.0214,0.13414 -0.007,0.16227 -0.0281,0.0281 -0.0481,-0.0219 -0.0445,-0.11112 z m 0.43002,-0.20461 c 0,-0.11642 0.0192,-0.16404 0.0427,-0.10584 0.0235,0.0582 0.0235,0.15346 0,0.21167 -0.0235,0.0582 -0.0427,0.0106 -0.0427,-0.10583 z m -11.938,-0.33867 c 0,-0.11642 0.0192,-0.16404 0.0427,-0.10583 0.0235,0.0582 0.0235,0.15346 0,0.21166 -0.0235,0.0582 -0.0427,0.0106 -0.0427,-0.10583 z m 0.42334,-0.254 c 0,-0.11642 0.0192,-0.16404 0.0427,-0.10583 0.0235,0.0582 0.0235,0.15346 0,0.21166 -0.0235,0.0582 -0.0427,0.0106 -0.0427,-0.10583 z m -5.6664,-0.508 c 0,-0.16298 0.0174,-0.22966 0.0387,-0.14817 0.0213,0.0815 0.0213,0.21485 0,0.29634 -0.0213,0.0815 -0.0387,0.0148 -0.0387,-0.14817 z m 17.1842,0.0423 c 0.002,-0.1397 0.0207,-0.1866 0.0422,-0.10422 0.0215,0.0824 0.02,0.19668 -0.003,0.254 -0.0232,0.0573 -0.0408,-0.0101 -0.039,-0.14978 z m -0.43316,-0.26105 c 0.004,-0.0986 0.0241,-0.1187 0.0512,-0.0511 0.0245,0.0611 0.0214,0.13414 -0.007,0.16227 -0.0281,0.0281 -0.0481,-0.0219 -0.0445,-0.11112 z m -16.33398,-0.12016 c 0,-0.11641 0.0192,-0.16404 0.0427,-0.10583 0.0235,0.0582 0.0235,0.15346 0,0.21167 -0.0235,0.0582 -0.0427,0.0106 -0.0427,-0.10584 z m 4.91067,-0.0847 c 0,-0.11642 0.0192,-0.16404 0.0427,-0.10584 0.0235,0.0582 0.0235,0.15346 0,0.21167 -0.0235,0.0582 -0.0427,0.0106 -0.0427,-0.10583 z m 0.42333,-0.254 c 0,-0.11642 0.0192,-0.16404 0.0427,-0.10584 0.0235,0.0582 0.0235,0.15346 0,0.21167 -0.0235,0.0582 -0.0427,0.0106 -0.0427,-0.10583 z m -5.66953,-0.71967 c 0.002,-0.1397 0.0207,-0.1866 0.0422,-0.10422 0.0215,0.0824 0.02,0.19668 -0.003,0.254 -0.0232,0.0573 -0.0408,-0.0101 -0.039,-0.14978 z m 5.74752,-0.007 c 0.004,-0.0986 0.0241,-0.1187 0.0512,-0.0512 0.0245,0.0611 0.0215,0.13415 -0.007,0.16228 -0.0281,0.0281 -0.0481,-0.0219 -0.0445,-0.11112 z m -5.32732,-0.28928 c 0,-0.11642 0.0192,-0.16404 0.0427,-0.10584 0.0235,0.0582 0.0235,0.15346 0,0.21167 -0.0235,0.0582 -0.0427,0.0106 -0.0427,-0.10583 z m -0.33553,-1.05834 c 0.002,-0.1397 0.0207,-0.1866 0.0422,-0.10422 0.0215,0.0824 0.02,0.19668 -0.003,0.254 -0.0232,0.0573 -0.0408,-0.0101 -0.039,-0.14978 z m 0.42333,-0.254 c 0.002,-0.1397 0.0207,-0.1866 0.0422,-0.10422 0.0215,0.0824 0.02,0.19668 -0.003,0.254 -0.0232,0.0573 -0.0408,-0.0101 -0.039,-0.14978 z m -0.33866,-1.10066 c 0.002,-0.1397 0.0207,-0.1866 0.0422,-0.10423 0.0215,0.0824 0.02,0.19668 -0.003,0.254 -0.0232,0.0573 -0.0408,-0.0101 -0.039,-0.14977 z m 0.42019,-0.21167 c 0,-0.11642 0.0192,-0.16404 0.0427,-0.10583 0.0235,0.0582 0.0235,0.15346 0,0.21166 -0.0235,0.0582 -0.0427,0.0106 -0.0427,-0.10583 z m -0.33553,-1.143 c 0.002,-0.1397 0.0207,-0.1866 0.0422,-0.10422 0.0215,0.0824 0.02,0.19668 -0.003,0.254 -0.0232,0.0573 -0.0408,-0.0101 -0.039,-0.14978 z m 0.4202,-0.21166 c 0,-0.11642 0.0192,-0.16404 0.0427,-0.10584 0.0235,0.0582 0.0235,0.15346 0,0.21167 -0.0235,0.0582 -0.0427,0.0106 -0.0427,-0.10583 z m -0.33553,-1.143 c 0.002,-0.1397 0.0207,-0.1866 0.0422,-0.10422 0.0215,0.0824 0.0201,0.19667 -0.003,0.254 -0.0232,0.0573 -0.0408,-0.0101 -0.039,-0.14978 z m 0.4202,-0.21167 c 0,-0.11642 0.0192,-0.16404 0.0427,-0.10583 0.0235,0.0582 0.0235,0.15346 0,0.21166 -0.0235,0.0582 -0.0427,0.0106 -0.0427,-0.10583 z m 6.01931,-0.804332 c 9.4e-4,-0.186267 0.0183,-0.252498 0.0385,-0.14718 0.0203,0.105318 0.0195,0.257718 -0.002,0.338667 -0.0212,0.08095 -0.0378,-0.0052 -0.0368,-0.191487 z m -6.35484,-0.338667 c 0.002,-0.1397 0.0207,-0.1866 0.0422,-0.104222 0.0215,0.08238 0.02,0.196678 -0.003,0.254 -0.0232,0.05732 -0.0408,-0.01008 -0.039,-0.149778 z m 0.42019,-0.211667 c 0,-0.116416 0.0192,-0.164041 0.0427,-0.105833 0.0235,0.05821 0.0235,0.153458 0,0.211667 -0.0235,0.05821 -0.0427,0.01058 -0.0427,-0.105834 z m -0.33068,-1.312333 c 9.4e-4,-0.186267 0.0183,-0.252497 0.0385,-0.147179 0.0203,0.105317 0.0195,0.257717 -0.002,0.338666 -0.0212,0.08095 -0.0378,-0.0052 -0.0368,-0.191487 z m 0.41849,-0.338667 c 0.002,-0.1397 0.0207,-0.1866 0.0422,-0.104222 0.0215,0.08238 0.02,0.196678 -0.003,0.254 -0.0232,0.05732 -0.0408,-0.01008 -0.039,-0.149778 z m -0.32739,-1.862666 c 3.3e-4,-0.325967 0.0157,-0.448942 0.034,-0.273279 0.0183,0.175664 0.018,0.442364 -6.8e-4,0.592667 -0.0187,0.150303 -0.0337,0.0066 -0.0333,-0.319388 z m 0.42265,-0.804334 c 0,-0.302683 0.0154,-0.426508 0.0341,-0.275166 0.0188,0.151341 0.0188,0.398991 0,0.550333 -0.0188,0.151342 -0.0341,0.02752 -0.0341,-0.275167 z m 13.41902,0.28082 c 0.0611,-0.02446 0.13415,-0.02145 0.16228,0.0067 0.0281,0.02813 -0.0219,0.04814 -0.11112,0.04447 -0.0986,-0.0041 -0.1187,-0.02412 -0.0511,-0.05115 z m 1.27,-0.08467 c 0.0611,-0.02446 0.13415,-0.02145 0.16228,0.0067 0.0281,0.02813 -0.0219,0.04815 -0.11112,0.04447 -0.0986,-0.0041 -0.1187,-0.02412 -0.0512,-0.05115 z m -9.44401,-0.0855 c 0.0824,-0.02147 0.19668,-0.02005 0.254,0.0031 0.0573,0.02319 -0.0101,0.04076 -0.14978,0.03903 -0.1397,-0.0017 -0.1866,-0.0207 -0.10422,-0.04217 z m 0.88739,-0.0011 c 0.10477,-0.02018 0.27622,-0.02018 0.381,0 0.10477,0.02018 0.0191,0.03669 -0.1905,0.03669 -0.20955,0 -0.29528,-0.01651 -0.1905,-0.03669 z m 6.64749,-0.255003 c 0.1287,-0.01946 0.3192,-0.01894 0.42334,0.0012 0.10413,0.0201 -10e-4,0.03602 -0.234,0.03538 -0.23283,-6.77e-4 -0.31803,-0.01708 -0.18934,-0.03654 z m 1.016,0 c 0.1287,-0.01946 0.3192,-0.01894 0.42334,0.0012 0.10413,0.0201 -0.001,0.03602 -0.234,0.03538 -0.23283,-6.77e-4 -0.31803,-0.01708 -0.18934,-0.03654 z m -14.22327,-0.447223 c 0,-0.20955 0.0165,-0.295275 0.0367,-0.1905 0.0202,0.104775 0.0202,0.276225 0,0.381 -0.0202,0.104775 -0.0367,0.01905 -0.0367,-0.1905 z m 5.54378,0.278915 c 0.10477,-0.02018 0.27622,-0.02018 0.381,0 0.10477,0.02018 0.019,0.03669 -0.1905,0.03669 -0.20955,0 -0.29528,-0.01651 -0.1905,-0.03669 z m 1.01411,-0.0014 c 0.1503,-0.0187 0.417,-0.01901 0.59267,-6.77e-4 0.17566,0.01833 0.0527,0.03363 -0.27328,0.03401 -0.32597,3.38e-4 -0.46969,-0.01462 -0.31939,-0.03332 z m -2.02482,-0.0814 c 0.0611,-0.02446 0.13414,-0.02145 0.16228,0.0067 0.0281,0.02813 -0.0219,0.04814 -0.11113,0.04447 -0.0986,-0.0041 -0.11869,-0.02412 -0.0512,-0.05115 z m 3.38667,0 c 0.0611,-0.02446 0.13414,-0.02145 0.16227,0.0067 0.0281,0.02813 -0.0219,0.04814 -0.11112,0.04447 -0.0986,-0.0041 -0.1187,-0.02412 -0.0512,-0.05115 z m 0.58737,-0.0829 c 0.0582,-0.02349 0.15346,-0.02349 0.21167,0 0.0582,0.02349 0.0106,0.0427 -0.10584,0.0427 -0.11641,0 -0.16404,-0.01922 -0.10583,-0.0427 z m -5.07471,-0.08643 c 0.0611,-0.02446 0.13415,-0.02145 0.16228,0.0067 0.0281,0.02813 -0.0219,0.04815 -0.11113,0.04447 -0.0986,-0.0041 -0.11869,-0.02412 -0.0511,-0.05115 z m -3.0851,-0.913037 c -0.0262,-0.06831 -0.028,-0.173089 -0.004,-0.232833 0.024,-0.05975 0.0466,-0.02608 0.0503,0.07482 0.004,0.100894 0.0543,0.202661 0.11252,0.226149 0.0829,0.03345 0.0823,0.04415 -0.003,0.04939 -0.0597,0.0037 -0.12994,-0.04921 -0.15616,-0.117522 z m 14.20568,-0.129793 c 0,-0.116417 0.0192,-0.164042 0.0427,-0.105834 0.0235,0.05821 0.0235,0.153459 0,0.211667 -0.0235,0.05821 -0.0427,0.01058 -0.0427,-0.105833 z m -3.21734,-0.08467 c 0,-0.116417 0.0192,-0.164042 0.0427,-0.105833 0.0235,0.05821 0.0235,0.153458 0,0.211666 -0.0235,0.05821 -0.0427,0.01058 -0.0427,-0.105833 z m 0.50801,-0.254 c 0,-0.116417 0.0192,-0.164042 0.0427,-0.105833 0.0235,0.05821 0.0235,0.153458 0,0.211666 -0.0235,0.05821 -0.0427,0.01058 -0.0427,-0.105833 z m -12.02936,-0.04939 c 0.004,-0.09863 0.0241,-0.118694 0.0511,-0.05115 0.0245,0.06112 0.0215,0.134145 -0.007,0.162278 -0.0281,0.02813 -0.0481,-0.02187 -0.0445,-0.111125 z m 0.43002,-0.373944 c 0,-0.116417 0.0192,-0.164042 0.0427,-0.105834 0.0235,0.05821 0.0235,0.153459 0,0.211667 -0.0235,0.05821 -0.0427,0.01058 -0.0427,-0.105833 z m 11.01294,-0.08467 c 0,-0.162983 0.0174,-0.229658 0.0387,-0.148167 0.0213,0.08149 0.0213,0.214842 0,0.296334 -0.0213,0.08149 -0.0387,0.01482 -0.0387,-0.148167 z m 3.19769,0.137367 c 0,-0.01758 0.0667,-0.08426 0.14817,-0.148167 0.13429,-0.105314 0.13728,-0.10232 0.032,0.03197 -0.11061,0.141033 -0.18013,0.185884 -0.18013,0.1162 z m 0.42334,0 c 0,-0.01758 0.0667,-0.08426 0.14816,-0.148167 0.13429,-0.105314 0.13728,-0.10232 0.032,0.03197 -0.1106,0.141033 -0.18013,0.185884 -0.18013,0.1162 z m 0.54229,-0.158534 -0.16129,-0.1905 0.1905,0.16129 c 0.10477,0.08871 0.1905,0.174433 0.1905,0.1905 0,0.06775 -0.0681,0.01773 -0.21971,-0.16129 z m -3.57065,-0.3175 c 0,-0.162983 0.0174,-0.229658 0.0387,-0.148166 0.0213,0.08149 0.0213,0.214841 0,0.296333 -0.0213,0.08149 -0.0387,0.01482 -0.0387,-0.148167 z m -11.69027,-0.254 c 0,-0.116416 0.0192,-0.164041 0.0427,-0.105833 0.0235,0.05821 0.0235,0.153458 0,0.211667 -0.0235,0.05821 -0.0427,0.01058 -0.0427,-0.105834 z m 14.36409,0.111497 c 0.0611,-0.02446 0.13414,-0.02145 0.16227,0.0067 0.0281,0.02813 -0.0219,0.04815 -0.11112,0.04447 -0.0986,-0.0041 -0.1187,-0.02412 -0.0512,-0.05115 z m 0.86254,-0.256549 c 0.0699,-0.02586 0.18415,-0.08953 0.254,-0.141482 0.11036,-0.08209 0.11177,-0.07505 0.0108,0.0537 -0.0639,0.08149 -0.17821,0.145159 -0.254,0.141482 -0.11527,-0.0056 -0.11704,-0.01437 -0.0108,-0.0537 z m -15.74132,-0.412284 c 0.004,-0.09863 0.0241,-0.118694 0.0511,-0.05115 0.0245,0.06112 0.0215,0.134144 -0.007,0.162278 -0.0281,0.02813 -0.0481,-0.02187 -0.0445,-0.111125 z m 0.42333,-0.169334 c 0.004,-0.09863 0.0241,-0.118694 0.0512,-0.05115 0.0245,0.06112 0.0214,0.134145 -0.007,0.162278 -0.0281,0.02813 -0.0481,-0.02187 -0.0445,-0.111125 z m 6.99949,-0.345351 c 0.0582,-0.02349 0.15346,-0.02349 0.21166,0 0.0582,0.02349 0.0106,0.0427 -0.10583,0.0427 -0.11642,0 -0.16404,-0.01922 -0.10583,-0.0427 z m 0.68262,-0.08643 c 0.0611,-0.02446 0.13415,-0.02145 0.16228,0.0067 0.0281,0.02813 -0.0219,0.04814 -0.11113,0.04447 -0.0986,-0.0041 -0.11869,-0.02412 -0.0511,-0.05115 z m 0.508,-0.08467 c 0.0611,-0.02446 0.13415,-0.02145 0.16228,0.0067 0.0281,0.02813 -0.0219,0.04814 -0.11113,0.04447 -0.0986,-0.0041 -0.11869,-0.02412 -0.0512,-0.05115 z m -8.27477,-0.160885 c 0.004,-0.09863 0.0241,-0.118694 0.0512,-0.05115 0.0245,0.06112 0.0215,0.134144 -0.007,0.162278 -0.0281,0.02813 -0.0481,-0.02187 -0.0445,-0.111125 z m 8.69811,0.07622 c 0.0611,-0.02446 0.13414,-0.02145 0.16227,0.0067 0.0281,0.02813 -0.0219,0.04815 -0.11112,0.04447 -0.0986,-0.0041 -0.1187,-0.02412 -0.0512,-0.05115 z m 3.93018,-0.365497 c 0,-0.162983 0.0174,-0.229658 0.0387,-0.148167 0.0213,0.08149 0.0213,0.214842 0,0.296334 -0.0213,0.08149 -0.0387,0.01482 -0.0387,-0.148167 z m -10.70782,0.02478 c 0.10531,-0.02025 0.25771,-0.01948 0.33866,0.0017 0.081,0.02119 -0.005,0.03776 -0.19148,0.03682 -0.18627,-9.4e-4 -0.2525,-0.01828 -0.14718,-0.03853 z m 3.51573,-0.405785 c 6.7e-4,-0.232833 0.0171,-0.318034 0.0365,-0.189336 0.0195,0.128699 0.0189,0.319199 -10e-4,0.423334 -0.0201,0.104135 -0.036,-0.0012 -0.0354,-0.233998 z m 5.64845,0.296333 c -0.10854,-0.07014 -0.10546,-0.08226 0.0212,-0.08337 0.0815,-6.77e-4 0.14816,0.0368 0.14816,0.08337 0,0.103261 -0.01,0.103261 -0.16933,0 z m -5.23283,-0.211666 c 0.002,-0.1397 0.0207,-0.1866 0.0422,-0.104222 0.0215,0.08238 0.02,0.196678 -0.003,0.254 -0.0232,0.05732 -0.0408,-0.01008 -0.039,-0.149778 z m -5.93649,-0.09172 c 0.004,-0.09863 0.0241,-0.118694 0.0511,-0.05115 0.0245,0.06112 0.0215,0.134144 -0.007,0.162278 -0.0281,0.02813 -0.0482,-0.02187 -0.0445,-0.111125 z m 2.00415,-0.0067 c 0.0582,-0.02349 0.15346,-0.02349 0.21167,0 0.0582,0.02349 0.0106,0.0427 -0.10584,0.0427 -0.11641,0 -0.16404,-0.01922 -0.10583,-0.0427 z m 10.78052,-0.670649 c 0.004,-0.09863 0.0241,-0.118694 0.0511,-0.05115 0.0245,0.06112 0.0215,0.134144 -0.007,0.162278 -0.0281,0.02813 -0.0481,-0.02187 -0.0445,-0.111125 z m -9.97198,-0.458607 c 0,-0.256117 0.0159,-0.360892 0.0353,-0.232833 0.0194,0.128058 0.0194,0.337608 0,0.465666 -0.0194,0.128059 -0.0353,0.02328 -0.0353,-0.232833 z m -0.42906,0.08467 c 0,-0.162984 0.0174,-0.229659 0.0387,-0.148167 0.0213,0.08149 0.0213,0.214842 0,0.296333 -0.0213,0.08149 -0.0387,0.01482 -0.0387,-0.148166 z m -2.9763,-0.303389 c 0.004,-0.09863 0.0241,-0.118694 0.0512,-0.05115 0.0245,0.06112 0.0215,0.134144 -0.007,0.162278 -0.0281,0.02813 -0.0481,-0.02187 -0.0445,-0.111125 z m -0.0847,-0.762 c 0.004,-0.09863 0.0241,-0.118694 0.0511,-0.05115 0.0245,0.06112 0.0215,0.134144 -0.007,0.162278 -0.0281,0.02813 -0.0481,-0.02187 -0.0445,-0.111125 z m 3.57556,-0.924278 c 5e-4,-0.2794 0.0163,-0.383492 0.0351,-0.231317 0.0188,0.152176 0.0185,0.380776 -8.7e-4,0.508 -0.0193,0.127225 -0.0347,0.0027 -0.0343,-0.276683 z m -0.42993,0.04233 c 0,-0.162984 0.0174,-0.229659 0.0387,-0.148167 0.0213,0.08149 0.0213,0.214842 0,0.296333 -0.0213,0.08149 -0.0387,0.01482 -0.0387,-0.148166 z m 3.05257,-0.211667 c 6.8e-4,-0.232833 0.0171,-0.318034 0.0365,-0.189336 0.0195,0.128698 0.0189,0.319198 -10e-4,0.423333 -0.0201,0.104135 -0.036,-0.0012 -0.0354,-0.233997 z m -5.84657,0.04233 c 0,-0.162983 0.0174,-0.229658 0.0387,-0.148166 0.0213,0.08149 0.0213,0.214841 0,0.296333 -0.0213,0.08149 -0.0387,0.01482 -0.0387,-0.148167 z m -0.4087,-1.397 c 8e-5,-0.745066 0.0131,-1.038532 0.0288,-0.652146 0.0157,0.386386 0.0156,0.995986 -1.7e-4,1.354666 -0.0158,0.358681 -0.0287,0.04255 -0.0286,-0.70252 z m 6.66107,1.178278 c 0.004,-0.09863 0.0241,-0.118694 0.0511,-0.05115 0.0245,0.06112 0.0215,0.134144 -0.007,0.162278 -0.0281,0.02813 -0.0481,-0.02187 -0.0445,-0.111125 z m -0.3257,-1.051278 c 0,-0.162983 0.0174,-0.229658 0.0387,-0.148166 0.0213,0.08149 0.0213,0.214841 0,0.296333 -0.0213,0.08149 -0.0387,0.01482 -0.0387,-0.148167 z m 9.19315,0.196164 c 0.0611,-0.02446 0.13414,-0.02145 0.16227,0.0067 0.0281,0.02813 -0.0219,0.04814 -0.11112,0.04447 -0.0986,-0.0041 -0.1187,-0.02412 -0.0512,-0.05115 z m -8.78278,-0.245552 c 0.004,-0.09863 0.0241,-0.118695 0.0512,-0.05115 0.0245,0.06112 0.0215,0.134144 -0.007,0.162278 -0.0281,0.02813 -0.0482,-0.02187 -0.0445,-0.111125 z m -3.46465,-0.204612 c 0,-0.116416 0.0192,-0.164041 0.0427,-0.105833 0.0235,0.05821 0.0235,0.153458 0,0.211667 -0.0235,0.05821 -0.0427,0.01058 -0.0427,-0.105834 z m 0.42961,-0.08467 c 0,-0.162984 0.0174,-0.229659 0.0387,-0.148167 0.0213,0.08149 0.0213,0.214842 0,0.296333 -0.0213,0.08149 -0.0387,0.01482 -0.0387,-0.148166 z m 2.7062,-0.719667 c 0.002,-0.1397 0.0207,-0.1866 0.0422,-0.104222 0.0215,0.08238 0.02,0.196678 -0.003,0.254 -0.0232,0.05732 -0.0408,-0.01008 -0.039,-0.149778 z m 0.42019,-0.04233 c 0,-0.116417 0.0192,-0.164042 0.0427,-0.105834 0.0235,0.05821 0.0235,0.153459 0,0.211667 -0.0235,0.05821 -0.0427,0.01058 -0.0427,-0.105833 z m -3.04172,-0.338667 c 0,-0.162983 0.0174,-0.229658 0.0387,-0.148167 0.0213,0.08149 0.0213,0.214842 0,0.296334 -0.0213,0.08149 -0.0387,0.01482 -0.0387,-0.148167 z m -3.38496,-0.127 c 9.4e-4,-0.186267 0.0183,-0.252497 0.0385,-0.14718 0.0202,0.105318 0.0195,0.257718 -0.002,0.338667 -0.0212,0.08095 -0.0378,-0.0052 -0.0368,-0.191487 z m 2.94866,0.162278 c 0.004,-0.09863 0.0241,-0.118694 0.0512,-0.05115 0.0245,0.06112 0.0215,0.134143 -0.007,0.162278 -0.0281,0.02813 -0.0481,-0.02187 -0.0445,-0.111125 z m 3.13267,-0.423333 c 0.004,-0.09863 0.0241,-0.118695 0.0511,-0.05115 0.0245,0.06112 0.0215,0.134143 -0.007,0.162278 -0.0281,0.02813 -0.0482,-0.02187 -0.0445,-0.111125 z m -13.99256,-0.09311 c 0.0611,-0.02446 0.13415,-0.02145 0.16228,0.0067 0.0281,0.02813 -0.0219,0.04815 -0.11113,0.04447 -0.0986,-0.0041 -0.11869,-0.02413 -0.0511,-0.05115 z m 2.66332,-8.47e-4 c 0.0824,-0.02147 0.19668,-0.02005 0.254,0.0031 0.0573,0.02319 -0.0101,0.04076 -0.14978,0.03903 -0.1397,-0.0017 -0.1866,-0.0207 -0.10422,-0.04217 z m -4.02328,-0.166723 c 0.0582,-0.02349 0.15346,-0.02349 0.21167,0 0.0582,0.02349 0.0106,0.0427 -0.10583,0.0427 -0.11642,0 -0.16405,-0.01922 -0.10584,-0.0427 z m 2.87867,-0.169333 c 0.0582,-0.02349 0.15346,-0.02349 0.21167,0 0.0582,0.02349 0.0106,0.0427 -0.10584,0.0427 -0.11641,0 -0.16404,-0.01922 -0.10583,-0.0427 z m -1.85737,-0.08643 c 0.0611,-0.02446 0.13414,-0.02145 0.16227,0.0067 0.0281,0.02813 -0.0219,0.04815 -0.11112,0.04447 -0.0986,-0.0041 -0.1187,-0.02412 -0.0511,-0.05115 z m 3.2967,0.0018 c 0.0582,-0.02349 0.15346,-0.02349 0.21167,0 0.0582,0.02349 0.0106,0.0427 -0.10583,0.0427 -0.11642,0 -0.16404,-0.01922 -0.10584,-0.0427 z m 8.42281,-0.197925 c 0,-0.162983 0.0174,-0.229658 0.0387,-0.148166 0.0213,0.08149 0.0213,0.214841 0,0.296333 -0.0213,0.08149 -0.0387,0.01482 -0.0387,-0.148167 z m -12.29631,0.07967 c 0,-0.04931 0.0381,-0.06612 0.0847,-0.03734 0.0466,0.02878 0.0847,0.06913 0.0847,0.08966 0,0.02053 -0.0381,0.03734 -0.0847,0.03734 -0.0466,0 -0.0847,-0.04035 -0.0847,-0.08966 z m 11.86002,-0.04439 c 0.004,-0.09863 0.0241,-0.118694 0.0511,-0.05115 0.0245,0.06112 0.0215,0.134144 -0.007,0.162278 -0.0281,0.02813 -0.0481,-0.02187 -0.0445,-0.111125 z m 3.13267,0 c 0.004,-0.09863 0.0241,-0.118694 0.0511,-0.05115 0.0245,0.06112 0.0215,0.134144 -0.007,0.162278 -0.0281,0.02813 -0.0481,-0.02187 -0.0445,-0.111125 z m -13.97668,-0.151936 c 0,-0.01758 0.0667,-0.08426 0.14816,-0.148167 0.13429,-0.105314 0.13728,-0.102319 0.032,0.03197 -0.1106,0.141033 -0.18013,0.185884 -0.18013,0.1162 z m -3.47134,-0.222033 c 0,-0.04657 0.0403,-0.08467 0.0897,-0.08467 0.0493,0 0.0661,0.0381 0.0373,0.08467 -0.0288,0.04657 -0.0691,0.08467 -0.0897,0.08467 -0.0205,0 -0.0373,-0.0381 -0.0373,-0.08467 z m -0.55033,-0.127341 -0.254,-0.119701 0.254,0.04978 c 0.1397,0.02738 0.29019,0.08297 0.33443,0.123521 0.12068,0.110626 -0.0409,0.08473 -0.33443,-0.05361 z m 3.59833,0.09537 c 0,-0.01758 0.0667,-0.08426 0.14817,-0.148167 0.13429,-0.105314 0.13728,-0.102319 0.032,0.03197 -0.1106,0.141033 -0.18013,0.185884 -0.18013,0.1162 z m 14.48469,-0.102089 c 0.004,-0.09863 0.0241,-0.118694 0.0512,-0.05115 0.0245,0.06112 0.0215,0.134144 -0.007,0.162278 -0.0281,0.02813 -0.0481,-0.02187 -0.0445,-0.111125 z m -19.10435,-0.225774 -0.24867,-0.275166 0.27517,0.248673 c 0.15134,0.136771 0.27516,0.260596 0.27516,0.275167 0,0.06541 -0.0699,0.0078 -0.30166,-0.248674 z m 12.50035,0.141112 c 0.004,-0.09863 0.0241,-0.118695 0.0512,-0.05115 0.0245,0.06112 0.0215,0.134143 -0.007,0.162278 -0.0281,0.02813 -0.0481,-0.02187 -0.0445,-0.111125 z m -8.13469,-0.162278 c 0.10937,-0.116417 0.2179,-0.211667 0.24119,-0.211667 0.0233,0 -0.0472,0.09525 -0.15652,0.211667 -0.10937,0.116416 -0.2179,0.211666 -0.24118,0.211666 -0.0233,0 0.0471,-0.09525 0.15651,-0.211666 z m 12.03604,-0.04233 c 0,-0.116416 0.0192,-0.164041 0.0427,-0.105833 0.0235,0.05821 0.0235,0.153458 0,0.211667 -0.0235,0.05821 -0.0427,0.01058 -0.0427,-0.105834 z m -14.17387,0.02491 c 0.10478,-0.02018 0.27622,-0.02018 0.381,0 0.10478,0.02018 0.0191,0.03669 -0.1905,0.03669 -0.20955,0 -0.29527,-0.01651 -0.1905,-0.03669 z m 27.70261,-0.596415 -0.29178,-0.3175 0.3175,0.291776 c 0.17463,0.160476 0.3175,0.303351 0.3175,0.3175 0,0.06465 -0.0717,0.0038 -0.34322,-0.291776 z m -16.83742,0.01411 c 0.004,-0.09863 0.0241,-0.118695 0.0512,-0.05115 0.0245,0.06112 0.0215,0.134143 -0.007,0.162278 -0.0281,0.02813 -0.0481,-0.02187 -0.0445,-0.111125 z m 15.89984,-0.352775 c -0.10531,-0.134287 -0.10232,-0.137281 0.032,-0.03197 0.14104,0.110606 0.18589,0.180133 0.1162,0.180133 -0.0176,0 -0.0843,-0.06668 -0.14816,-0.148166 z m -12.42851,-0.07056 c 0.004,-0.09863 0.0241,-0.118694 0.0511,-0.05115 0.0245,0.06112 0.0215,0.134144 -0.007,0.162278 -0.0281,0.02813 -0.0481,-0.02187 -0.0445,-0.111125 z m 12.85185,-0.09878 c -0.10532,-0.134286 -0.10232,-0.137281 0.032,-0.03197 0.14103,0.110606 0.18588,0.180133 0.1162,0.180133 -0.0176,0 -0.0843,-0.06668 -0.14817,-0.148167 z m -29.53787,-0.1378 c 0,-0.01758 0.0667,-0.08426 0.14817,-0.148166 0.13428,-0.105315 0.13728,-0.10232 0.032,0.03197 -0.11061,0.141034 -0.18014,0.185884 -0.18014,0.1162 z m 28.35253,-0.3702 c -0.10531,-0.134286 -0.10232,-0.137281 0.032,-0.03197 0.14104,0.110606 0.18589,0.180133 0.1162,0.180133 -0.0176,0 -0.0843,-0.06667 -0.14816,-0.148167 z m -27.01751,-0.08252 c 0.15217,-0.01884 0.38077,-0.01845 0.508,8.64e-4 0.12722,0.01932 0.003,0.03474 -0.27669,0.03426 -0.2794,-5.08e-4 -0.38349,-0.01628 -0.23131,-0.03513 z m 27.44085,-0.08681 c -0.10532,-0.134286 -0.10232,-0.137281 0.032,-0.03197 0.14103,0.110606 0.18588,0.180134 0.1162,0.180134 -0.0176,0 -0.0843,-0.06668 -0.14817,-0.148167 z m -6.12754,-0.4445 c 0.22934,-0.232833 0.43602,-0.423333 0.4593,-0.423333 0.0233,0 -0.1453,0.1905 -0.37463,0.423333 -0.22933,0.232833 -0.43602,0.423333 -0.4593,0.423333 -0.0233,0 0.1453,-0.1905 0.37463,-0.423333 z m -22.07683,0.197927 c 0.0582,-0.02349 0.15346,-0.02349 0.21167,0 0.0582,0.02349 0.0106,0.0427 -0.10584,0.0427 -0.11641,0 -0.16404,-0.01922 -0.10583,-0.0427 z m 4.18634,-0.155594 c 0.002,-0.1397 0.0207,-0.1866 0.0422,-0.104222 0.0215,0.08238 0.02,0.196678 -0.003,0.254 -0.0232,0.05732 -0.0408,-0.01008 -0.039,-0.149778 z m 18.39849,0.04233 c 0.0843,-0.09313 0.1723,-0.169334 0.19558,-0.169334 0.0233,0 -0.0266,0.0762 -0.11091,0.169334 -0.0843,0.09313 -0.17229,0.169333 -0.19558,0.169333 -0.0233,0 0.0266,-0.0762 0.11091,-0.169333 z m -16.61394,-0.254 c 0,-0.20955 0.0165,-0.295275 0.0367,-0.1905 0.0202,0.104775 0.0202,0.276225 0,0.381 -0.0202,0.104775 -0.0367,0.01905 -0.0367,-0.1905 z m 12.78394,0.193245 c 0.1287,-0.01946 0.3192,-0.01894 0.42333,0.0012 0.10414,0.0201 -10e-4,0.03602 -0.23399,0.03538 -0.23284,-6.77e-4 -0.31804,-0.01708 -0.18934,-0.03654 z m -13.47765,-0.157959 c 0.004,-0.09863 0.0241,-0.118694 0.0511,-0.05115 0.0245,0.06112 0.0215,0.134143 -0.007,0.162278 -0.0281,0.02813 -0.0482,-0.02187 -0.0445,-0.111125 z m 1.10067,-0.254 c 0.004,-0.09863 0.0241,-0.118694 0.0512,-0.05115 0.0245,0.06112 0.0215,0.134143 -0.007,0.162278 -0.0281,0.02813 -0.0481,-0.02187 -0.0445,-0.111125 z m 12.16944,-0.0084 c 0.0611,-0.02446 0.13415,-0.02145 0.16228,0.0067 0.0281,0.02813 -0.0219,0.04814 -0.11113,0.04447 -0.0986,-0.0041 -0.11869,-0.02412 -0.0511,-0.05115 z m 0.67734,0 c 0.0611,-0.02446 0.13414,-0.02145 0.16227,0.0067 0.0281,0.02813 -0.0219,0.04814 -0.11112,0.04447 -0.0986,-0.0041 -0.1187,-0.02412 -0.0512,-0.05115 z m -20.54162,-0.238495 c 0.002,-0.1397 0.0207,-0.1866 0.0422,-0.104222 0.0215,0.08238 0.02,0.196678 -0.003,0.254 -0.0232,0.05732 -0.0408,-0.01008 -0.039,-0.149778 z m 21.95449,-0.04233 c 0.0843,-0.09313 0.1723,-0.169334 0.19558,-0.169334 0.0233,0 -0.0266,0.0762 -0.11091,0.169334 -0.0843,0.09313 -0.1723,0.169333 -0.19558,0.169333 -0.0233,0 0.0266,-0.0762 0.11091,-0.169333 z m -16.93866,-0.1905 -0.24867,-0.275167 0.27516,0.248674 c 0.15134,0.13677 0.27517,0.260595 0.27517,0.275166 0,0.06541 -0.0699,0.0078 -0.30166,-0.248673 z m 16.64233,-0.105834 c 0.10936,-0.116416 0.2179,-0.211666 0.24118,-0.211666 0.0233,0 -0.0471,0.09525 -0.15652,0.211666 -0.10936,0.116417 -0.2179,0.211667 -0.24118,0.211667 -0.0233,0 0.0472,-0.09525 0.15652,-0.211667 z m -3.25967,0.04233 c -0.0288,-0.04657 -0.012,-0.08467 0.0373,-0.08467 0.0493,0 0.0897,0.0381 0.0897,0.08467 0,0.04657 -0.0168,0.08467 -0.0373,0.08467 -0.0205,0 -0.0609,-0.0381 -0.0897,-0.08467 z m 0.99483,-0.229976 c 0.12806,-0.0194 0.33761,-0.0194 0.46567,0 0.12806,0.0194 0.0233,0.03527 -0.23283,0.03527 -0.25612,0 -0.36089,-0.01587 -0.23284,-0.03527 z m -15.00716,-0.142015 c 0,-0.0183 0.0591,-0.05596 0.13139,-0.0837 0.0754,-0.02891 0.10934,-0.01472 0.0797,0.03328 -0.0497,0.08045 -0.21106,0.118995 -0.21106,0.05042 z m 12.10733,-0.173395 c 0,-0.0671 0.0346,-0.143354 0.0768,-0.16945 0.0422,-0.0261 0.0568,0.02881 0.0325,0.122003 -0.0517,0.197696 -0.10923,0.222686 -0.10923,0.04745 z m -6.0325,-0.01874 c 0.0582,-0.02349 0.15346,-0.02349 0.21167,0 0.0582,0.02349 0.0106,0.0427 -0.10584,0.0427 -0.11641,0 -0.16404,-0.01922 -0.10583,-0.0427 z m 3.64596,-0.0018 c 0.0611,-0.02446 0.13414,-0.02145 0.16228,0.0067 0.0281,0.02813 -0.0219,0.04815 -0.11113,0.04447 -0.0986,-0.0041 -0.11869,-0.02412 -0.0512,-0.05115 z m -12.192,-0.08462 c 0.0611,-0.02446 0.13414,-0.02145 0.16228,0.0067 0.0281,0.02813 -0.0219,0.04815 -0.11113,0.04447 -0.0986,-0.0041 -0.11869,-0.02412 -0.0511,-0.05115 z m 0.37571,-5.08e-4 c 0.0815,-0.02129 0.21484,-0.02129 0.29633,0 0.0815,0.0213 0.0148,0.03872 -0.14817,0.03872 -0.16298,0 -0.22966,-0.01742 -0.14816,-0.03872 z m 9.57042,-0.258297 c 0.26946,-0.01685 0.68856,-0.0167 0.93133,3.39e-4 0.24278,0.01704 0.0223,0.03083 -0.48992,0.03064 -0.51223,-1.69e-4 -0.71087,-0.01413 -0.44141,-0.03099 z m -1.56413,-0.07984 c 0.0611,-0.02446 0.13414,-0.02145 0.16228,0.0067 0.0281,0.02813 -0.0219,0.04814 -0.11113,0.04447 -0.0986,-0.0041 -0.11869,-0.02412 -0.0512,-0.05115 z m 3.97933,0 c 0.0611,-0.02446 0.13414,-0.02145 0.16228,0.0067 0.0281,0.02813 -0.0219,0.04814 -0.11113,0.04447 -0.0986,-0.0041 -0.11869,-0.02412 -0.0512,-0.05115 z m -12.15496,-0.08522 c 0.0815,-0.02129 0.21484,-0.02129 0.29634,0 0.0815,0.0213 0.0148,0.03872 -0.14817,0.03872 -0.16298,0 -0.22966,-0.01742 -0.14817,-0.03872 z m 7.41363,5.08e-4 c 0.0611,-0.02446 0.13414,-0.02145 0.16228,0.0067 0.0281,0.02813 -0.0219,0.04814 -0.11113,0.04447 -0.0986,-0.0041 -0.11869,-0.02412 -0.0512,-0.05115 z m 5.50333,0 c 0.0611,-0.02446 0.13414,-0.02145 0.16228,0.0067 0.0281,0.02813 -0.0219,0.04814 -0.11113,0.04447 -0.0986,-0.0041 -0.11869,-0.02412 -0.0512,-0.05115 z m 6.95854,-0.143444 c 0,-0.01758 0.0667,-0.08426 0.14817,-0.148167 0.13429,-0.105314 0.13728,-0.10232 0.032,0.03197 -0.1106,0.141033 -0.18013,0.185884 -0.18013,0.1162 z m -5.80365,-0.412534 -0.33468,-0.359833 0.35983,0.334683 c 0.33464,0.311252 0.39874,0.384984 0.33469,0.384984 -0.0138,0 -0.17576,-0.161925 -0.35984,-0.359834 z m 6.28908,0.01066 c 0.0574,-0.05786 0.12575,-0.08388 0.15181,-0.05781 0.0261,0.02607 -0.0209,0.07341 -0.10442,0.105205 -0.12066,0.04595 -0.13039,0.03622 -0.0474,-0.0474 z m -17.89247,-0.264661 -0.16129,-0.1905 0.1905,0.16129 c 0.17902,0.151571 0.22904,0.21971 0.16129,0.21971 -0.0161,0 -0.10179,-0.08573 -0.1905,-0.1905 z m 18.67704,0.02117 c -0.0763,-0.04931 -0.0867,-0.08259 -0.0262,-0.08337 0.0555,-6.78e-4 0.12439,0.0368 0.15317,0.08337 0.065,0.105116 0.0357,0.105116 -0.127,0 z m -17.61522,-0.656167 -0.29178,-0.3175 0.3175,0.291776 c 0.29553,0.271578 0.35643,0.343224 0.29178,0.343224 -0.0142,0 -0.15702,-0.142875 -0.3175,-0.3175 z m 17.10722,0.285534 c 0,-0.01758 0.0667,-0.08426 0.14817,-0.148167 0.13429,-0.105314 0.13728,-0.10232 0.032,0.03197 -0.1106,0.141033 -0.18013,0.185884 -0.18013,0.1162 z m -22.56366,-0.3067 c 0.0843,-0.09313 0.17229,-0.169334 0.19557,-0.169334 0.0233,0 -0.0266,0.0762 -0.11091,0.169334 -0.0843,0.09313 -0.17229,0.169333 -0.19558,0.169333 -0.0233,0 0.0266,-0.0762 0.11092,-0.169333 z m 17.97579,0.111496 c 0.0611,-0.02446 0.13414,-0.02145 0.16228,0.0067 0.0281,0.02813 -0.0219,0.04814 -0.11113,0.04447 -0.0986,-0.0041 -0.11869,-0.02413 -0.0511,-0.05115 z m 5.64621,-0.196163 c 0.0843,-0.09313 0.17229,-0.169333 0.19558,-0.169333 0.0233,0 -0.0266,0.0762 -0.11092,0.169333 -0.0843,0.09313 -0.17229,0.169333 -0.19557,0.169333 -0.0233,0 0.0266,-0.0762 0.11091,-0.169333 z m -6.32785,-0.144548 c 0.10532,-0.02025 0.25772,-0.01948 0.33867,0.0017 0.081,0.02119 -0.005,0.03776 -0.19149,0.03682 -0.18627,-9.4e-4 -0.2525,-0.01828 -0.14718,-0.03853 z m -15.11399,-0.08315 c 0.0815,-0.0213 0.21484,-0.0213 0.29634,0 0.0815,0.0213 0.0148,0.03872 -0.14817,0.03872 -0.16298,0 -0.22966,-0.01742 -0.14817,-0.03872 z m 16.3883,-0.422806 c 0.0611,-0.02446 0.13414,-0.02145 0.16227,0.0067 0.0281,0.02813 -0.0219,0.04815 -0.11112,0.04447 -0.0986,-0.0041 -0.1187,-0.02413 -0.0511,-0.05115 z m -13.66312,-0.301997 -0.24868,-0.275167 0.27517,0.248674 c 0.15134,0.136771 0.27517,0.260596 0.27517,0.275167 0,0.06541 -0.0699,0.0078 -0.30166,-0.248674 z m -0.71403,-0.1055 c -0.1092,-0.116233 -0.18251,-0.225512 -0.16293,-0.242841 0.0196,-0.01733 0.12424,0.07777 0.23256,0.211332 0.2424,0.298899 0.19971,0.318214 -0.0696,0.03151 z m 14.11785,0.15526 c 0.0582,-0.02349 0.15346,-0.02349 0.21167,0 0.0582,0.02349 0.0106,0.0427 -0.10583,0.0427 -0.11642,0 -0.16404,-0.01922 -0.10584,-0.0427 z m -2.90968,-0.305756 -0.15948,-0.188504 0.18306,0.154557 c 0.17723,0.149632 0.18433,0.149632 0.22301,0 0.0342,-0.132358 0.0414,-0.133994 0.0498,-0.01139 0.0157,0.228437 -0.12344,0.249717 -0.29636,0.04533 z m 2.82502,-0.371577 c 0.0582,-0.02349 0.15346,-0.02349 0.21166,0 0.0582,0.02349 0.0106,0.0427 -0.10583,0.0427 -0.11642,0 -0.16404,-0.01922 -0.10583,-0.0427 z m -13.85749,-0.162648 c 0.004,-0.09863 0.0241,-0.118694 0.0512,-0.05115 0.0245,0.06112 0.0215,0.134143 -0.007,0.162278 -0.0281,0.02813 -0.0481,-0.02187 -0.0445,-0.111125 z m 20.94832,-0.03528 c 0.0843,-0.09313 0.1723,-0.169333 0.19558,-0.169333 0.0233,0 -0.0266,0.0762 -0.11091,0.169333 -0.0843,0.09313 -0.1723,0.169333 -0.19558,0.169333 -0.0233,0 0.0266,-0.0762 0.11091,-0.169333 z m -23.57298,-0.21872 c 0.004,-0.09863 0.0241,-0.118694 0.0511,-0.05115 0.0245,0.06112 0.0215,0.134143 -0.007,0.162278 -0.0281,0.02813 -0.0481,-0.02187 -0.0445,-0.111125 z m 14.96344,0.07622 c 0.0611,-0.02446 0.13414,-0.02145 0.16228,0.0067 0.0281,0.02813 -0.0219,0.04814 -0.11113,0.04447 -0.0986,-0.0041 -0.11869,-0.02412 -0.0512,-0.05115 z m 1.524,0 c 0.0611,-0.02446 0.13414,-0.02145 0.16228,0.0067 0.0281,0.02813 -0.0219,0.04814 -0.11113,0.04447 -0.0986,-0.0041 -0.11869,-0.02412 -0.0512,-0.05115 z m -3.03213,-0.397465 c 0,-0.01758 0.0667,-0.08426 0.14817,-0.148166 0.13429,-0.105315 0.13728,-0.10232 0.032,0.03197 -0.11061,0.141034 -0.18013,0.185884 -0.18013,0.1162 z m -0.91169,-0.476033 c 0,-0.162983 0.0174,-0.229658 0.0387,-0.148167 0.0213,0.08149 0.0213,0.214842 0,0.296334 -0.0213,0.08149 -0.0387,0.01482 -0.0387,-0.148167 z m 5.74438,0.119945 c 0.004,-0.09863 0.0241,-0.118694 0.0512,-0.05115 0.0245,0.06112 0.0214,0.134143 -0.007,0.162278 -0.0281,0.02813 -0.0481,-0.02187 -0.0445,-0.111125 z m -2.39323,-0.262448 c 0.0611,-0.02446 0.13415,-0.02145 0.16228,0.0067 0.0281,0.02814 -0.0219,0.04815 -0.11112,0.04447 -0.0986,-0.0041 -0.1187,-0.02412 -0.0512,-0.05115 z m -0.33359,-0.174997 c -0.10531,-0.134286 -0.10232,-0.137281 0.032,-0.03197 0.14103,0.110606 0.18588,0.180134 0.1162,0.180134 -0.0176,0 -0.0843,-0.06668 -0.14817,-0.148167 z m -3.02069,-0.5715 c 0.002,-0.1397 0.0207,-0.1866 0.0422,-0.104222 0.0215,0.08238 0.02,0.196678 -0.003,0.254 -0.0232,0.05732 -0.0408,-0.01008 -0.039,-0.149778 z m 10.58465,-0.07613 c 0.06,-0.06515 0.12251,-0.105789 0.13882,-0.0903 0.0502,0.04771 -0.0771,0.20876 -0.16498,0.20876 -0.0456,0 -0.0339,-0.05331 0.0262,-0.11846 z M 104.84701,71.91858 c 0.0843,-0.09313 0.17229,-0.169334 0.19558,-0.169334 0.0233,0 -0.0266,0.0762 -0.11092,0.169334 -0.0843,0.09313 -0.17229,0.169333 -0.19557,0.169333 -0.0233,0 0.0266,-0.0762 0.11091,-0.169333 z m 21.53686,-0.402167 c -0.10531,-0.134286 -0.10232,-0.137281 0.032,-0.03197 0.14104,0.110606 0.18589,0.180134 0.1162,0.180134 -0.0176,0 -0.0843,-0.06668 -0.14816,-0.148167 z m -20.83307,0.0057 c 0.0611,-0.02446 0.13414,-0.02145 0.16228,0.0067 0.0281,0.02813 -0.0219,0.04814 -0.11113,0.04447 -0.0986,-0.0041 -0.11869,-0.02412 -0.0512,-0.05115 z m 20.29006,-0.03246 c -0.0307,-0.04966 -0.0376,-0.108458 -0.0155,-0.130651 0.0222,-0.02219 0.0629,0.01844 0.0905,0.0903 0.0572,0.149192 0.008,0.175435 -0.075,0.04035 z m -2.22368,-0.375368 c 0.002,-0.139699 0.0207,-0.186599 0.0422,-0.104222 0.0215,0.08238 0.02,0.196678 -0.003,0.254 -0.0232,0.05732 -0.0408,-0.01008 -0.039,-0.149778 z m 2.76669,-0.02117 c -0.10531,-0.134286 -0.10232,-0.137281 0.032,-0.03197 0.0815,0.06391 0.14817,0.130586 0.14817,0.148167 0,0.06968 -0.0695,0.02483 -0.18013,-0.1162 z m 0.90853,-0.09172 c -0.024,-0.03881 0.0102,-0.07056 0.0759,-0.07056 0.0657,0 0.0999,0.03175 0.0759,0.07056 -0.024,0.0388 -0.0582,0.07055 -0.0759,0.07055 -0.0178,0 -0.052,-0.03175 -0.0759,-0.07055 z m -0.16934,-0.254 c -0.024,-0.03881 0.0102,-0.07056 0.076,-0.07056 0.0657,0 0.0999,0.03175 0.0759,0.07056 -0.024,0.03881 -0.0582,0.07055 -0.0759,0.07055 -0.0178,0 -0.052,-0.03175 -0.076,-0.07055 z m -1.23331,-0.730069 c -0.11189,-0.134825 -0.052,-0.3008 0.10775,-0.298746 0.0633,8.13e-4 0.0556,0.02993 -0.0207,0.07821 -0.10074,0.06374 -0.10258,0.09977 -0.0108,0.21037 0.0609,0.0734 0.0917,0.133453 0.0684,0.133453 -0.0233,0 -0.0884,-0.05548 -0.14465,-0.123291 z m 1.34079,-0.109542 c -0.10531,-0.134287 -0.10232,-0.137281 0.032,-0.03197 0.14104,0.110606 0.18589,0.180133 0.1162,0.180133 -0.0176,0 -0.0843,-0.06667 -0.14816,-0.148166 z m -0.71691,-0.211667 -0.16129,-0.1905 0.1905,0.161289 c 0.17902,0.151572 0.22904,0.219711 0.16129,0.219711 -0.0161,0 -0.10179,-0.08572 -0.1905,-0.1905 z m 2.34306,-0.02822 c 0.004,-0.09863 0.0241,-0.118695 0.0512,-0.05115 0.0245,0.06112 0.0215,0.134144 -0.007,0.162278 -0.0281,0.02813 -0.0481,-0.02187 -0.0445,-0.111125 z m -2.04948,-0.268111 c -0.10532,-0.134287 -0.10232,-0.137281 0.032,-0.03197 0.0815,0.06391 0.14816,0.130585 0.14816,0.148167 0,0.06968 -0.0695,0.02483 -0.18013,-0.1162 z m 1.72377,-0.4445 c 0,-0.162984 0.0174,-0.229659 0.0387,-0.148167 0.0213,0.08149 0.0213,0.214842 0,0.296333 -0.0213,0.08149 -0.0387,0.01482 -0.0387,-0.148166 z m -11.88377,0.02117 c -0.10532,-0.134286 -0.10232,-0.137281 0.032,-0.03197 0.14103,0.110606 0.18588,0.180133 0.1162,0.180133 -0.0176,0 -0.0843,-0.06668 -0.14817,-0.148167 z m 6.6518,-0.127 -0.24867,-0.275166 0.27517,0.248673 c 0.25649,0.231799 0.31408,0.30166 0.24867,0.30166 -0.0146,0 -0.13839,-0.123825 -0.27517,-0.275167 z m -4.65134,-0.656166 c -0.13804,-0.05932 -0.14287,-0.07386 -0.0262,-0.07872 0.0787,-0.0033 0.16672,0.03215 0.1955,0.07872 0.0602,0.09736 0.0572,0.09736 -0.16933,0 z m 9.78569,-0.04939 c 0.004,-0.09863 0.0241,-0.118695 0.0512,-0.05115 0.0245,0.06112 0.0214,0.134144 -0.007,0.162278 -0.0281,0.02813 -0.0481,-0.02187 -0.0445,-0.111125 z m -1.34485,-0.500945 c 0.002,-0.1397 0.0207,-0.1866 0.0422,-0.104222 0.0215,0.08238 0.02,0.196678 -0.003,0.254 -0.0232,0.05732 -0.0407,-0.01008 -0.039,-0.149778 z m -1.64634,-0.352448 c 0.0582,-0.02349 0.15346,-0.02349 0.21167,0 0.0582,0.02349 0.0106,0.0427 -0.10583,0.0427 -0.11642,0 -0.16404,-0.01922 -0.10584,-0.0427 z m 0.85196,-0.0018 c 0.0611,-0.02446 0.13415,-0.02145 0.16228,0.0067 0.0281,0.02813 -0.0219,0.04814 -0.11113,0.04447 -0.0986,-0.0041 -0.11869,-0.02412 -0.0512,-0.05115 z m -7.77346,-0.0588 c 0,-0.01758 0.0667,-0.08426 0.14817,-0.148167 0.13429,-0.105314 0.13728,-0.102319 0.032,0.03197 -0.11061,0.141033 -0.18013,0.185883 -0.18013,0.1162 z m 4.65378,-0.6242 -0.46278,-0.486834 0.48684,0.462775 c 0.26776,0.254526 0.48683,0.473601 0.48683,0.486833 0,0.06284 -0.081,-0.01049 -0.51089,-0.462774 z m 1.76502,0.344329 c 0.0611,-0.02446 0.13414,-0.02145 0.16227,0.0067 0.0281,0.02813 -0.0219,0.04814 -0.11112,0.04447 -0.0986,-0.0041 -0.11869,-0.02412 -0.0512,-0.05115 z m 0.58737,-0.0829 c 0.0582,-0.02349 0.15346,-0.02349 0.21167,0 0.0582,0.02349 0.0106,0.0427 -0.10584,0.0427 -0.11641,0 -0.16404,-0.01922 -0.10583,-0.0427 z m 0.55033,-0.0023 c 0.0815,-0.0213 0.21485,-0.0213 0.29634,0 0.0815,0.0213 0.0148,0.03872 -0.14817,0.03872 -0.16298,0 -0.22966,-0.01742 -0.14817,-0.03872 z m -2.69135,-0.640136 -0.42015,-0.4445 0.4445,0.42015 c 0.41304,0.390412 0.48333,0.46885 0.42015,0.46885 -0.0134,0 -0.21341,-0.200025 -0.4445,-0.4445 z m 4.18778,0.211666 -0.20526,-0.232833 0.23283,0.205259 c 0.12806,0.112892 0.23284,0.217667 0.23284,0.232833 0,0.0664 -0.0686,0.01236 -0.26041,-0.205259 z m -6.23776,-0.07953 c 0.0815,-0.0213 0.21484,-0.0213 0.29633,0 0.0815,0.0213 0.0148,0.03872 -0.14816,0.03872 -0.16299,0 -0.22966,-0.01742 -0.14817,-0.03872 z m 5.30643,-0.682471 -0.20526,-0.232833 0.23283,0.205259 c 0.12806,0.112892 0.23283,0.217667 0.23283,0.232833 0,0.0664 -0.0686,0.01236 -0.2604,-0.205259 z m 0.41894,-0.169333 c -0.10532,-0.134286 -0.10232,-0.137281 0.032,-0.03197 0.0815,0.06391 0.14816,0.130585 0.14816,0.148166 0,0.06968 -0.0695,0.02483 -0.18013,-0.1162 z m -1.016,-0.508 c -0.10532,-0.134286 -0.10232,-0.137281 0.032,-0.03197 0.0815,0.06391 0.14816,0.130585 0.14816,0.148166 0,0.06968 -0.0695,0.02483 -0.18013,-0.1162 z m -9.17554,-0.275119 c 0.0843,-0.09313 0.1723,-0.169333 0.19558,-0.169333 0.0233,0 -0.0266,0.0762 -0.11091,0.169333 -0.0843,0.09313 -0.1723,0.169334 -0.19558,0.169334 -0.0233,0 0.0266,-0.0762 0.11091,-0.169334 z m 4.699,-0.201299 c 0,-0.01758 0.0667,-0.08426 0.14817,-0.148167 0.13429,-0.105314 0.13728,-0.10232 0.032,0.03197 -0.1106,0.141034 -0.18013,0.185884 -0.18013,0.116201 z m 0.0423,-0.645367 c 0.0843,-0.09313 0.1723,-0.169334 0.19558,-0.169334 0.0233,0 -0.0266,0.0762 -0.11091,0.169334 -0.0843,0.09313 -0.17229,0.169333 -0.19558,0.169333 -0.0233,0 0.0266,-0.0762 0.11091,-0.169333 z m 2.4066,-0.0635 -0.20526,-0.232834 0.23283,0.205259 c 0.12806,0.112892 0.23283,0.217667 0.23283,0.232833 0,0.0664 -0.0686,0.01236 -0.2604,-0.205258 z m 1.25623,0.08828 c 0.10531,-0.02025 0.25771,-0.01948 0.33866,0.0017 0.081,0.02119 -0.005,0.03776 -0.19149,0.03682 -0.18626,-9.4e-4 -0.25249,-0.01828 -0.14717,-0.03853 z m -3.0278,-0.141423 c 0,-0.01758 0.0667,-0.08426 0.14817,-0.148167 0.13429,-0.105314 0.13728,-0.10232 0.032,0.03197 -0.11061,0.141034 -0.18013,0.185884 -0.18013,0.116201 z m 0.66146,-0.872538 c 0.0611,-0.02446 0.13415,-0.02145 0.16228,0.0067 0.0281,0.02813 -0.0219,0.04814 -0.11112,0.04447 -0.0986,-0.0041 -0.1187,-0.02412 -0.0511,-0.05115 z"
       id="path1042" />
    <path
       style="fill:#030404;stroke-width:0.0846667"
       d="m 130.62801,112.86707 c -1.18233,-0.26029 -2.05747,-1.09271 -2.37035,-2.25464 -0.0613,-0.22775 -0.26164,-0.56525 -0.50224,-0.84619 -0.6236,-0.72817 -0.99382,-1.40359 -1.32355,-2.41467 -0.34517,-1.05839 -1.10484,-2.68254 -1.99186,-4.25851 -0.88072,-1.56477 -1.79225,-2.99344 -1.8621,-2.91851 -0.11803,0.12663 -0.65765,1.94349 -0.91201,3.07069 -0.30268,1.34136 -0.56934,3.21909 -0.64325,4.52966 -0.0738,1.30823 -0.11846,1.55085 -0.29594,1.60718 -0.10922,0.0347 -0.16538,0.16984 -0.20319,0.48916 -0.0897,0.7572 -0.5348,1.17441 -1.31302,1.2307 -0.44325,0.0321 -0.51253,0.015 -0.63237,-0.15614 l -0.13458,-0.19214 -0.68072,0.269 c -1.75384,0.69305 -3.85082,0.93252 -4.67445,0.53381 -1.10941,-0.53706 -0.45374,-1.49415 1.5154,-2.21206 l 0.65723,-0.23961 0.35511,-5.70261 c 0.45973,-7.382523 0.48421,-8.972005 0.17654,-11.459949 -0.57333,-4.636023 -0.58507,-4.79282 -0.55752,-7.445882 l 0.0259,-2.49028 -0.2554,0.157939 c -0.33845,0.209297 -1.27721,0.541241 -2.11526,0.747957 -2.1596,0.532691 -5.09007,0.535701 -7.80654,0.008 -1.35529,-0.263268 -1.68652,-0.397446 -2.23526,-0.90549 -0.68058,-0.630093 -0.83369,-1.210422 -0.43583,-1.651889 0.12441,-0.13805 0.11815,-0.167526 -0.0809,-0.381 -0.45268,-0.485434 -0.53445,-1.019211 -0.23126,-1.509775 l 0.17452,-0.28239 -0.20855,-0.362603 c -0.27,-0.469419 -0.33973,-0.823072 -0.22302,-1.131063 0.2179,-0.57502 0.73749,-0.881273 1.79732,-1.059356 l 0.63341,-0.106432 -0.16323,-0.369017 c -0.39751,-0.898637 -0.34746,-2.019828 0.13245,-2.966883 0.50424,-0.995072 1.53021,-1.325523 2.16002,-0.695715 0.44206,0.44206 0.47214,0.693503 0.22594,1.88858 -0.1195,0.580031 -0.19029,1.124919 -0.15731,1.210863 0.033,0.08594 0.64129,0.73602 1.3518,1.444616 l 1.29183,1.288357 0.91364,0.171134 c 2.49452,0.467246 5.26205,0.528125 7.37649,0.162263 l 0.53617,-0.09277 -0.24624,-0.265255 c -0.65274,-0.703147 -1.23703,-1.710371 -1.50455,-2.593575 -0.3437,-1.134693 -0.23918,-2.998202 0.25553,-4.556054 l 0.20171,-0.635182 -0.2919,-0.341016 c -0.50365,-0.588403 -0.53839,-1.239411 -0.0892,-1.671726 0.19308,-0.185829 0.1949,-0.201707 0.0755,-0.658849 -0.14348,-0.549441 -0.087,-1.107161 0.15405,-1.521722 0.27421,-0.471555 0.7026,-0.941641 0.8596,-0.943258 0.1249,-0.0013 0.14817,0.07865 0.14817,0.509131 0,0.82627 0.18999,0.807603 1.68317,-0.165371 1.10215,-0.718172 1.52798,-0.864087 1.99838,-0.684762 0.24214,0.09231 0.27004,0.0774 0.67733,-0.362049 0.53343,-0.57555 0.64146,-0.65301 1.03433,-0.741616 0.39701,-0.08954 0.86678,0.100438 1.36794,0.553206 0.34781,0.314224 0.74475,0.460774 1.25834,0.464581 0.2321,0.0017 0.32493,0.07299 0.62616,0.480753 0.4065,0.550261 0.95621,1.115181 1.5389,1.581476 1.50112,1.201274 1.64498,3.888168 0.32506,6.07108 l -0.32592,0.539027 0.19899,0.427342 c 0.29515,0.633829 0.24395,1.117649 -0.16482,1.557662 -0.20293,0.218436 -1.07852,0.690013 -1.28116,0.690013 -0.0701,0 -0.19224,0.104775 -0.2714,0.232834 -0.0792,0.128058 -0.2939,0.39106 -0.47718,0.584449 l -0.33325,0.351615 0.20007,0.123575 c 0.11003,0.06797 0.79434,0.431432 1.52067,0.807702 3.94695,2.044657 6.33013,4.180201 7.78443,6.975533 l 0.35327,0.679028 -0.39771,1.218951 c -0.59745,1.831166 -1.88648,4.274781 -2.88797,5.474731 l -0.19593,0.23475 0.20768,0.306031 c 0.52756,0.777402 0.45516,1.646042 -0.20697,2.483217 -0.16622,0.210156 -0.17087,0.210751 -1.65352,0.211666 -0.81775,5.08e-4 -1.48699,0.01292 -1.48719,0.02758 -1.7e-4,0.01466 0.18617,0.376615 0.41416,0.804333 0.77521,1.454351 2.77282,7.691694 3.31315,10.345004 0.21523,1.05691 0.2574,2.56178 0.0887,3.16539 -0.096,0.34356 -0.0862,0.41017 0.1314,0.889 0.3027,0.66614 0.36965,1.50012 0.15649,1.94932 -0.28562,0.6019 -1.16343,0.8972 -2.07227,0.69712 z m 1.36208,-0.50154 c 0.15755,-0.10617 0.33624,-0.28715 0.3971,-0.40217 0.16028,-0.30294 0.0859,-0.97877 -0.16889,-1.53531 l -0.21956,-0.47951 -0.74887,0.26069 c -0.59576,0.20739 -0.89599,0.26215 -1.46853,0.26785 -0.39582,0.004 -0.82444,-0.0221 -0.9525,-0.058 -0.29224,-0.0817 -0.30553,0.0534 -0.0547,0.55532 0.33332,0.6668 1.06642,1.29042 1.76915,1.50496 0.46308,0.14137 1.14798,0.0875 1.44674,-0.11387 z m -15.59678,-1.2833 c 0.4365,-0.12063 1.06443,-0.3331 1.39539,-0.47216 0.73677,-0.30955 0.8437,-0.31253 1.05008,-0.0292 0.1414,0.1941 0.20266,0.21616 0.46414,0.16711 0.42699,-0.0801 0.72286,-0.34479 0.82994,-0.74249 0.0508,-0.18847 0.0798,-0.35511 0.0646,-0.37031 -0.0152,-0.0152 -0.33203,0.045 -0.70406,0.13373 -1.03861,0.24776 -2.2519,0.30193 -2.91873,0.13031 -0.30194,-0.0777 -0.6761,-0.21629 -0.83147,-0.30796 l -0.2825,-0.16668 -0.61358,0.21783 c -1.25918,0.44702 -2.06756,1.04366 -1.86167,1.37405 0.17064,0.27384 0.61264,0.36054 1.64052,0.3218 0.69531,-0.0262 1.20055,-0.0994 1.7673,-0.25602 z m 14.10622,-1.10716 c 0.32515,-0.0689 0.7907,-0.22284 1.03455,-0.34215 0.3697,-0.18087 0.45779,-0.26885 0.53018,-0.52947 0.12359,-0.445 0.10794,-1.63604 -0.0319,-2.42921 -0.23119,-1.31108 -0.96295,-3.92835 -1.91382,-6.845086 -0.84747,-2.599581 -1.11163,-3.257625 -1.77616,-4.424581 -0.32103,-0.563751 -0.60897,-1.125726 -0.63987,-1.248834 -0.0656,-0.261291 -0.0871,-0.265371 -0.49647,-0.09431 -0.51826,0.216546 -1.82125,0.543096 -2.71635,0.680764 -1.13937,0.175238 -3.31075,0.1728 -4.40267,-0.0049 -0.99553,-0.162056 -2.61349,-0.562362 -3.2259,-0.798136 l -0.43191,-0.166281 -0.0498,2.259703 c -0.0274,1.242837 -0.18682,4.372951 -0.35429,6.955811 -0.16747,2.58287 -0.2936,5.02127 -0.2803,5.41867 l 0.0242,0.72255 0.29778,0.14572 c 0.46824,0.22913 1.357,0.32147 2.18884,0.22743 0.81875,-0.0926 2.18914,-0.39404 2.25177,-0.49538 0.0225,-0.0364 0.0822,-0.61431 0.13278,-1.28429 0.19049,-2.52482 0.57332,-4.60415 1.2453,-6.76381 0.37284,-1.198269 0.37954,-1.239718 0.27985,-1.731097 -0.0562,-0.276889 -0.17502,-0.64629 -0.2641,-0.820892 -0.10725,-0.210234 -0.13167,-0.336178 -0.0723,-0.372879 0.11037,-0.06821 0.0465,-0.162784 0.61248,0.90721 0.26279,0.496837 0.73757,1.315988 1.05506,1.820338 1.51665,2.4092 2.79405,4.91199 3.27825,6.42299 0.21465,0.66983 0.43623,1.16019 0.71592,1.58436 0.56551,0.85763 0.83663,1.08927 1.42217,1.21505 0.65159,0.13997 0.88879,0.13859 1.58671,-0.009 z m 0.93855,-15.455256 c 0.42716,-0.354516 0.59558,-1.250115 0.3374,-1.794197 -0.32882,-0.692921 -0.62824,-0.698306 -1.02666,-0.01847 -0.25369,0.432905 -0.23678,0.815897 0.0329,0.745369 0.18686,-0.04887 0.39221,0.173742 0.32407,0.351309 -0.027,0.07044 -0.12232,0.128078 -0.21176,0.128078 -0.28122,0 -0.52756,-0.274617 -0.577,-0.643253 -0.0533,-0.397565 0.0875,-0.728916 0.47406,-1.115487 l 0.25271,-0.25271 -0.5254,-0.102424 c -0.66437,-0.129514 -1.41647,-0.525845 -1.79684,-0.946866 -0.29144,-0.322589 -0.29646,-0.324365 -0.45862,-0.162207 -0.52458,0.524585 -0.53995,2.707378 -0.0253,3.591404 0.19789,0.339906 0.46545,0.388807 1.94539,0.355556 0.76751,-0.01725 1.16355,-0.06019 1.25502,-0.136107 z m -7.32775,-0.122458 c 1.40105,-0.184789 3.36475,-0.738191 3.3285,-0.938025 -0.0932,-0.51397 -0.19749,-1.91646 -0.19749,-2.656753 0,-0.514068 -0.0157,-0.93467 -0.0348,-0.93467 -0.0191,0 -0.42873,0.09243 -0.91017,0.205405 -0.89935,0.211039 -2.48845,0.503808 -3.25566,0.599806 -0.52454,0.06564 -1.04849,-0.06301 -1.36482,-0.335107 l -0.23419,-0.20143 0.002,-1.975837 c 0.002,-1.98511 0.11074,-3.669375 0.34308,-5.32017 0.203,-1.442414 0.14025,-1.31971 0.78226,-1.529644 1.68284,-0.550288 2.99852,-1.565733 3.6001,-2.778565 0.44231,-0.891737 0.43339,-0.925825 -0.34606,-1.323083 -0.36089,-0.183933 -0.67753,-0.345459 -0.70363,-0.358944 -0.0261,-0.01349 -0.21318,0.340853 -0.41571,0.787422 -0.66221,1.460163 -1.42343,2.067709 -2.59274,2.06932 -0.93846,0.0013 -1.84796,-0.365706 -2.99776,-1.209646 -0.34925,-0.256346 -0.66357,-0.44856 -0.6985,-0.427142 -0.0349,0.02142 -0.0635,0.285861 -0.0635,0.587652 0,0.640136 0.18177,1.066271 0.69301,1.62466 0.20807,0.227264 0.31643,0.417247 0.28974,0.508 -0.20963,0.712853 -0.42173,3.168978 -0.56453,6.537303 -0.11756,2.772905 -0.10941,2.746445 -0.82861,2.692788 -0.31638,-0.0236 -0.74406,-0.153285 -1.26177,-0.382596 -0.64119,-0.284005 -0.78224,-0.321479 -0.77805,-0.206709 0.003,0.0771 0.10876,0.994297 0.23543,2.038213 l 0.2303,1.89803 0.59008,0.200334 c 1.24005,0.421009 2.69819,0.732209 4.23074,0.902939 0.67765,0.07549 2.05553,0.04082 2.92266,-0.07355 z m 8.1487,-3.768518 c 0.87864,-1.298188 1.73554,-3.027048 2.18328,-4.404972 l 0.36627,-1.127202 -0.33345,-0.6358 c -1.2535,-2.390046 -3.5967,-4.572256 -6.74835,-6.284711 -0.73145,-0.39743 -0.90877,-0.439907 -0.90877,-0.217693 0,0.05677 -0.12753,0.36885 -0.2834,0.693503 -0.33544,0.698669 -0.93811,1.427224 -1.56789,1.895372 -0.55044,0.409168 -1.68407,0.973237 -2.23388,1.111523 -0.22119,0.05563 -0.40217,0.11593 -0.40217,0.133992 0,0.01806 -0.0586,0.423113 -0.13027,0.900115 -0.21691,1.444053 -0.37773,3.816474 -0.37773,5.572388 0,1.582623 0.008,1.668585 0.17871,1.822266 0.28962,0.261397 1.35132,0.20532 3.16563,-0.167203 2.31693,-0.475723 2.12414,-0.377168 2.23543,-1.142807 0.0516,-0.354953 0.23096,-1.266831 0.3986,-2.026397 0.16764,-0.759566 0.29126,-1.390687 0.27472,-1.40249 -1.88324,-1.343524 -1.9186,-1.37559 -1.72735,-1.566831 0.10985,-0.109849 0.18313,-0.08238 0.61466,0.230411 1.02419,0.74238 1.95798,1.125033 3.30922,1.356072 1.00798,0.172346 1.10308,0.312804 0.42382,0.625938 -0.53602,0.247103 -1.01156,0.719089 -1.44441,1.433628 -0.38939,0.642782 -0.46456,0.898656 -0.57607,1.960793 l -0.0875,0.833157 0.30247,0.369127 c 0.38371,0.468262 1.17491,0.867242 1.91092,0.963618 0.30037,0.03933 0.60307,0.06595 0.67266,0.05916 0.0696,-0.0068 0.42277,-0.450025 0.78482,-0.984952 z m -4.14241,-0.326797 c 0.0936,-0.07729 0.14128,-0.247407 0.1424,-0.508 0.006,-1.408435 0.49968,-2.650324 1.40941,-3.545633 0.38332,-0.377246 0.49275,-0.529167 0.38118,-0.529167 -0.0861,0 -0.45548,-0.07646 -0.82087,-0.169913 -0.47377,-0.121169 -0.6811,-0.142827 -0.72271,-0.07549 -0.0782,0.126455 -0.63957,2.755365 -0.75199,3.521292 -0.0491,0.334887 -0.0892,0.906387 -0.0891,1.27 l 3.4e-4,0.661115 0.1553,-0.254 c 0.0854,-0.1397 0.21862,-0.30629 0.29601,-0.3702 z m -9.89574,-0.682538 c 0.0269,-0.04349 0.10349,-1.215064 0.17024,-2.6035 0.14322,-2.978808 0.27167,-4.644284 0.42916,-5.564323 l 0.11456,-0.669228 -0.29134,-0.340374 c -0.51186,-0.597985 -0.6733,-1.028813 -0.67208,-1.793568 l 0.001,-0.678398 -0.67841,0.107864 c -0.37313,0.05933 -1.42519,0.131842 -2.33792,0.161148 -1.79262,0.05756 -3.20135,-0.03588 -4.72932,-0.313702 -0.49088,-0.08925 -0.93878,-0.162854 -0.99533,-0.163561 -0.0704,-8.81e-4 -0.0476,0.125698 0.0721,0.40088 0.22402,0.515139 0.30238,1.614197 0.15914,2.232123 -0.12792,0.551833 -0.6997,1.663204 -1.09095,2.120454 -0.15687,0.183344 -0.26416,0.354422 -0.23841,0.380171 0.0257,0.02575 0.59226,0.04485 1.2589,0.04245 2.54787,-0.0092 5.32842,-0.730496 5.92463,-1.536922 0.1032,-0.139575 0.26083,-0.253773 0.3503,-0.253773 0.14055,0 0.15578,0.04318 0.11197,0.3175 -0.11772,0.737122 -0.21238,2.269585 -0.21694,3.512068 -0.005,1.342155 0.13207,3.349801 0.24997,3.663432 0.0658,0.174905 0.89727,0.628526 1.64756,0.898799 0.48145,0.173427 0.69005,0.19548 0.76113,0.08046 z M 107.8691,82.504308 c 0.47634,-0.544533 0.87049,-1.199358 1.10057,-1.828477 0.22064,-0.603303 0.24848,-1.691739 0.055,-2.150488 l -0.12381,-0.293564 -0.15064,0.420564 c -0.0828,0.231311 -0.18838,0.611065 -0.23451,0.843898 -0.20358,1.027681 -0.42482,1.774783 -0.6285,2.122335 -0.21043,0.359069 -0.91048,1.052665 -1.06246,1.052665 -0.04,0 -0.0727,0.03569 -0.0727,0.0793 0,0.04362 0.12383,0.09467 0.27517,0.11345 0.15134,0.01878 0.31983,0.04025 0.37443,0.0477 0.0546,0.0075 0.26497,-0.175869 0.46749,-0.407383 z m -1.17498,-0.189576 c 0.54252,-0.347256 0.95323,-0.903675 1.15916,-1.570373 0.21593,-0.699116 0.21775,-0.864086 0.009,-0.809482 -0.2954,0.07725 -0.28001,-0.145906 0.034,-0.493511 0.40508,-0.448377 0.54907,-0.807957 0.54907,-1.371155 0,-0.876138 -0.0276,-0.923354 -1.23999,-2.125332 -1.29802,-1.286804 -1.25929,-1.184264 -0.95951,-2.540348 0.26282,-1.188879 0.20252,-1.539025 -0.30664,-1.780639 -0.37392,-0.177432 -0.65926,-0.09592 -1.05719,0.302015 -0.9913,0.991297 -0.82178,3.464457 0.26133,3.812628 0.55381,0.178026 1.44007,0.688188 1.68997,0.972811 0.42267,0.481399 0.42349,1.169593 0.002,1.728317 -0.15407,0.204258 -0.1532,0.207042 0.17724,0.565532 0.40897,0.443678 0.4469,0.848556 0.12406,1.324285 -0.19798,0.291741 -0.20188,0.321229 -0.0808,0.610999 0.11607,0.277782 0.11389,0.331717 -0.0248,0.615447 -0.3207,0.656035 -1.64356,0.958723 -2.90319,0.664289 -0.30241,-0.07069 -0.56214,-0.116221 -0.57718,-0.101186 -0.0467,0.04667 0.50776,0.207874 1.42888,0.415441 0.97596,0.219927 1.04063,0.211638 1.71458,-0.219738 z m -0.39052,-0.584186 c 0.64324,-0.309567 0.59061,-0.738186 -0.13013,-1.059686 -1.31348,-0.58591 -3.23981,-0.564158 -3.56327,0.04024 -0.14511,0.271133 -0.006,0.518315 0.40988,0.729136 0.40225,0.203838 1.11513,0.430132 1.57293,0.499308 0.47148,0.07125 1.35176,-0.03631 1.71059,-0.208994 z m 0.46494,-1.572812 c 0.35517,-0.340278 0.31179,-0.583087 -0.18804,-1.052347 -0.63271,-0.594021 -1.533,-0.952027 -2.41083,-0.958679 -1.57104,-0.01191 -2.37866,0.754371 -1.59609,1.514392 l 0.30891,0.30001 0.82174,-0.05385 c 0.8937,-0.05857 1.74477,0.05685 2.32811,0.315727 0.44886,0.199199 0.46133,0.198094 0.7362,-0.06525 z m 16.22375,-1.008185 c 0.24248,-0.120831 0.57137,-0.378954 0.73087,-0.573608 0.2915,-0.355734 0.83688,-1.408219 0.7663,-1.478805 -0.0208,-0.0208 -0.20712,0.100916 -0.41405,0.270478 -0.20693,0.169562 -0.42024,0.308294 -0.47403,0.308294 -0.25625,0 0.0403,-0.333248 0.93063,-1.04596 0.5715,-0.457464 1.07858,-0.940245 1.22766,-1.168837 0.19192,-0.294263 0.33678,-0.414434 0.59267,-0.491658 0.458,-0.138219 1.0218,-0.472431 1.18143,-0.700332 0.18951,-0.270555 0.16082,-0.772802 -0.0703,-1.231527 -0.11068,-0.219644 -0.22807,-0.523463 -0.26087,-0.675154 -0.09,-0.416249 -0.67677,-1.237288 -1.07045,-1.497812 -0.23766,-0.157275 -0.32144,-0.258593 -0.26253,-0.317498 0.0589,-0.0589 0.20377,-0.0056 0.45396,0.166945 0.47816,0.329815 0.59287,0.467002 0.90095,1.0775 0.1927,0.381859 0.27049,0.472318 0.31328,0.364298 0.10145,-0.25612 -0.4512,-1.139284 -1.07338,-1.715333 -0.58865,-0.545001 -0.65927,-0.640249 -0.47189,-0.636533 0.36555,0.0072 1.43998,1.1712 1.62566,1.761115 0.0341,0.108284 0.0835,0.175348 0.10982,0.14903 0.0263,-0.02632 -0.023,-0.210164 -0.10952,-0.408547 -0.27443,-0.628995 -0.71335,-1.258371 -1.20324,-1.725344 l -0.47481,-0.452594 0.27247,-0.379414 c 0.28826,-0.401397 0.52045,-0.890615 0.52045,-1.096578 0,-0.410898 -0.61561,-0.491949 -1.88664,-0.248393 l -0.74364,0.142497 -0.65449,-0.704644 -0.6545,-0.704644 -0.39467,0.278193 c -0.55317,0.38991 -1.04106,0.427138 -1.76148,0.134407 l -0.54758,-0.222503 -0.25567,0.285852 c -0.31056,0.347235 -0.9528,0.860757 -1.53054,1.223805 -0.57885,0.36374 -0.74967,0.561809 -1.03953,1.205389 -0.87392,1.940368 -1.14653,3.974097 -0.73693,5.497769 0.36027,1.340159 1.36206,2.674913 2.62801,3.501462 0.41297,0.269633 1.2414,0.469706 2.27381,0.549142 0.4258,0.03276 0.77419,0.09767 0.77419,0.144234 0,0.117517 -0.96304,0.152038 -1.50185,0.05384 -0.24502,-0.04466 -0.45855,-0.06832 -0.47452,-0.05259 -0.0501,0.04935 0.51704,0.317655 1.0027,0.474379 0.68544,0.221191 1.23513,0.202377 1.76228,-0.06032 z M 119.55,76.319562 c -0.49675,-0.113755 -0.48141,-0.224012 0.0387,-0.277686 0.69453,-0.07168 1.07165,0.176401 0.45603,0.3 -0.11642,0.02337 -0.33903,0.01333 -0.49468,-0.02231 z m -0.42428,-0.844758 c -0.36566,-0.08641 -0.92248,-0.3288 -1.21888,-0.530584 -0.22343,-0.15211 -0.23293,-0.152296 -0.23531,-0.0046 -0.002,0.122206 -0.0543,0.09694 -0.254,-0.122571 -0.29949,-0.329236 -0.32549,-0.664966 -0.076,-0.982079 0.20824,-0.264737 0.33252,-0.286098 0.33252,-0.05715 0,0.261695 0.92548,0.51152 1.89275,0.51093 0.87925,-5.08e-4 1.2126,-0.07352 2.02669,-0.443727 0.54772,-0.249074 0.5726,-0.272949 0.52244,-0.501332 -0.0681,-0.309967 0.0433,-0.30768 0.50557,0.01038 0.53916,0.370953 0.75643,0.959768 0.58718,1.591316 -0.0696,0.259702 -0.16711,0.239136 -0.27035,-0.05702 l -0.0863,-0.247518 -0.65274,0.327916 c -1.02522,0.51504 -2.20997,0.710094 -3.07354,0.506015 z m 1.80795,-0.284654 c 0.50615,-0.135203 1.0772,-0.417851 1.45786,-0.721579 0.48707,-0.388636 0.28162,-0.651635 -0.28548,-0.365438 -0.6417,0.323847 -1.45344,0.474533 -2.56938,0.476966 -0.91979,0.002 -1.11269,-0.02256 -1.47358,-0.187635 -0.48717,-0.22284 -0.58176,-0.186773 -0.29914,0.114062 0.64046,0.681737 2.04377,0.984393 3.16972,0.683624 z m -1.54595,-2.192075 c -0.22623,-0.241493 -0.44251,-0.654494 -0.44319,-0.846315 -2.5e-4,-0.0813 0.24909,-0.419815 0.55417,-0.752258 0.30509,-0.332443 0.64726,-0.787105 0.76039,-1.010359 0.23397,-0.461715 0.37825,-0.59205 0.37825,-0.341693 0,0.161768 -0.51505,1.217103 -0.91731,1.87957 l -0.18507,0.304779 0.25795,0.324593 c 0.14188,0.178525 0.23751,0.377866 0.21253,0.442979 -0.025,0.06511 -0.0454,0.13432 -0.0454,0.153795 0,0.118559 -0.42342,0.0038 -0.57229,-0.155091 z m 6.60023,-0.512031 c -0.29769,-0.307142 -0.332,-0.398136 -0.15012,-0.398136 0.15961,0 0.65606,0.500623 0.59478,0.59978 -0.0792,0.128127 -0.16099,0.09103 -0.44466,-0.201644 z m 0.70402,-0.225787 c -0.029,-0.09147 -0.22211,-0.315353 -0.42904,-0.497507 -0.57096,-0.502576 -0.45658,-0.720457 0.129,-0.245733 0.2694,0.218401 0.59541,0.66134 0.59541,0.808964 0,0.166308 -0.23858,0.113222 -0.29538,-0.06572 z m -3.39567,-1.112834 c -0.21905,-0.242402 -0.90975,-0.583515 -1.18153,-0.583515 -0.30648,0 -0.22439,-0.186571 0.1376,-0.312721 0.75383,-0.262707 1.24796,-0.01091 1.32531,0.675348 0.0495,0.439055 -0.0287,0.500466 -0.28138,0.220888 z m -5.2662,-0.04924 c -0.15442,-0.300866 -0.19025,-0.630215 -0.10358,-0.952075 0.17042,-0.632905 0.59257,-0.489805 0.65189,0.220978 0.0373,0.447518 -0.10336,0.813831 -0.32932,0.857347 -0.0772,0.01486 -0.17573,-0.04195 -0.21899,-0.12625 z m 5.24984,-2.283058 c -0.19969,-0.202336 -0.43781,-0.367883 -0.52917,-0.367883 -0.20046,0 -0.21302,-0.110317 -0.0331,-0.290286 0.15783,-0.157824 0.16828,-0.158991 0.38502,-0.043 0.14674,0.07853 0.75194,0.922726 0.75194,1.048881 0,0.131885 -0.2517,-0.02039 -0.57474,-0.347716 z m -5.40064,-0.03954 c -0.0667,-0.107879 0.34277,-0.47186 0.6154,-0.547065 0.23373,-0.06448 0.36464,0.01381 0.36464,0.218053 0,0.120813 -0.0595,0.156981 -0.2494,0.151582 -0.13716,-0.0039 -0.34473,0.05537 -0.46125,0.131722 -0.1465,0.09599 -0.2296,0.110093 -0.26939,0.04571 z m -11.28309,9.320462 c 0.17189,-0.320514 0.20263,-0.767106 0.0699,-1.015181 -0.13602,-0.254148 -0.77476,-0.65179 -1.49499,-0.930686 -0.55811,-0.216116 -0.73626,-0.248583 -1.12841,-0.205646 -1.20376,0.131799 -1.86266,0.497203 -1.86266,1.032959 0,0.284621 0.35666,1.038207 0.4904,1.036163 0.033,-5.08e-4 0.24696,-0.05765 0.47555,-0.127 0.80982,-0.245668 1.89484,-0.118833 2.74426,0.320797 0.21787,0.112759 0.43079,0.199184 0.47316,0.192056 0.0424,-0.0071 0.14714,-0.143686 0.23283,-0.303462 z m 21.8047,-7.901913 c 0.0742,-0.285576 0.1346,-0.843079 0.13413,-1.238895 -0.002,-1.302636 -0.38361,-2.123884 -1.33651,-2.872743 -0.49999,-0.392922 -1.28303,-1.24433 -1.47595,-1.604802 -0.0615,-0.115015 -0.21816,-0.167233 -0.60738,-0.202527 -0.3524,-0.03195 -0.59658,-0.105856 -0.74432,-0.22527 -1.23649,-0.999415 -1.39406,-1.00453 -2.28646,-0.07421 l -0.57917,0.603774 -0.34965,-0.139902 c -0.43326,-0.173356 -0.74273,-0.08563 -1.49292,0.423187 -1.24434,0.843973 -1.66351,1.060807 -1.94764,1.007504 -0.30085,-0.05644 -0.49663,-0.238099 -0.59165,-0.548968 -0.0612,-0.200376 -0.0671,-0.197535 -0.26358,0.127 -0.22674,0.374586 -0.26593,0.944931 -0.10244,1.490626 0.11405,0.38067 0.53321,0.831 0.77347,0.831 0.28145,0 1.15177,-0.590997 1.8249,-1.23922 0.35563,-0.342469 0.67644,-0.622845 0.71292,-0.623058 0.0365,-2.12e-4 0.2524,0.09391 0.47983,0.209159 0.80064,0.405712 1.28894,0.361943 1.77578,-0.15917 0.11289,-0.120841 0.27947,-0.219711 0.37017,-0.219711 0.0922,0 0.47734,0.304946 0.87298,0.691119 l 0.70806,0.691119 0.6151,-0.110259 c 0.88112,-0.157944 1.65834,-0.130813 1.92465,0.06719 0.38743,0.28804 0.30016,1.004756 -0.22006,1.807363 -0.14422,0.222501 -0.14263,0.228519 0.11858,0.448316 0.34316,0.288748 0.79716,0.910339 1.08838,1.490151 l 0.23125,0.4604 0.11628,-0.284968 c 0.0639,-0.156733 0.17702,-0.518622 0.25125,-0.804198 z M 117.2839,68.136088 c 0.005,-0.0082 -0.14152,-0.117038 -0.32562,-0.241969 l -0.33472,-0.227149 -0.15211,0.187849 c -0.21331,0.263424 -0.18946,0.58281 0.0723,0.967975 l 0.22437,0.330193 0.25336,-0.501039 c 0.13934,-0.275572 0.25745,-0.507709 0.26246,-0.51586 z"
       id="path1040" />
  </g>
</svg>
